<?xml version="1.0" encoding="UTF-8" standalone="no"?>
<!DOCTYPE svg PUBLIC "-//W3C//DTD SVG 1.1//EN"
 "http://www.w3.org/Graphics/SVG/1.1/DTD/svg11.dtd">
<!-- Generated by graphviz version 7.0.3 (20221126.0506)
 -->
<!-- Title: banco.cpp Pages: 1 -->
<svg width="416pt" height="357pt"
 viewBox="0.00 0.00 416.00 357.00" xmlns="http://www.w3.org/2000/svg" xmlns:xlink="http://www.w3.org/1999/xlink">
<g id="graph0" class="graph" transform="scale(1 1) rotate(0) translate(4 353)">
<title>banco.cpp</title>
<!-- Node1 -->
<g id="node1" class="node">
<title>Node1</title>
<g id="a_node1"><a xlink:title=" ">
<polygon fill="#999999" stroke="#666666" points="231,-349 169,-349 169,-330 231,-330 231,-349"/>
<text text-anchor="middle" x="200" y="-337" font-family="Helvetica,sans-Serif" font-size="10.00">banco.cpp</text>
</a>
</g>
</g>
<!-- Node2 -->
<g id="node2" class="node">
<title>Node2</title>
<g id="a_node2"><a xlink:href="banco_8hpp.html" target="_top" xlink:title="Classe principal do projeto caixa eletrônico.">
<polygon fill="white" stroke="#666666" points="231,-294 169,-294 169,-275 231,-275 231,-294"/>
<text text-anchor="middle" x="200" y="-282" font-family="Helvetica,sans-Serif" font-size="10.00">banco.hpp</text>
</a>
</g>
</g>
<!-- Node1&#45;&gt;Node2 -->
<g id="edge1" class="edge">
<title>Node1&#45;&gt;Node2</title>
<path fill="none" stroke="#63b8ff" d="M200,-329.75C200,-323.27 200,-314.16 200,-305.9"/>
<polygon fill="#63b8ff" stroke="#63b8ff" points="203.5,-305.96 200,-295.96 196.5,-305.96 203.5,-305.96"/>
</g>
<!-- Node3 -->
<g id="node3" class="node">
<title>Node3</title>
<g id="a_node3"><a xlink:title=" ">
<polygon fill="#e0e0e0" stroke="#999999" points="321,-19 267,-19 267,0 321,0 321,-19"/>
<text text-anchor="middle" x="294" y="-7" font-family="Helvetica,sans-Serif" font-size="10.00">iostream</text>
</a>
</g>
</g>
<!-- Node2&#45;&gt;Node3 -->
<g id="edge2" class="edge">
<title>Node2&#45;&gt;Node3</title>
<path fill="none" stroke="#63b8ff" d="M231.26,-282.9C268.87,-280.65 332.16,-271.8 374,-239 399.2,-219.25 408,-207.51 408,-175.5 408,-175.5 408,-175.5 408,-118.5 408,-73.23 360.05,-41.26 326.34,-24.37"/>
<polygon fill="#63b8ff" stroke="#63b8ff" points="327.88,-21.22 317.35,-20.07 324.86,-27.54 327.88,-21.22"/>
</g>
<!-- Node4 -->
<g id="node4" class="node">
<title>Node4</title>
<g id="a_node4"><a xlink:title=" ">
<polygon fill="#e0e0e0" stroke="#999999" points="299,-184 257,-184 257,-165 299,-165 299,-184"/>
<text text-anchor="middle" x="278" y="-172" font-family="Helvetica,sans-Serif" font-size="10.00">vector</text>
</a>
</g>
</g>
<!-- Node2&#45;&gt;Node4 -->
<g id="edge3" class="edge">
<title>Node2&#45;&gt;Node4</title>
<path fill="none" stroke="#63b8ff" d="M206.38,-274.66C219.12,-257.02 247.94,-217.12 264.88,-193.67"/>
<polygon fill="#63b8ff" stroke="#63b8ff" points="267.63,-195.84 270.64,-185.69 261.95,-191.74 267.63,-195.84"/>
</g>
<!-- Node5 -->
<g id="node5" class="node">
<title>Node5</title>
<g id="a_node5"><a xlink:title=" ">
<polygon fill="#e0e0e0" stroke="#999999" points="115.5,-19 74.5,-19 74.5,0 115.5,0 115.5,-19"/>
<text text-anchor="middle" x="95" y="-7" font-family="Helvetica,sans-Serif" font-size="10.00">string</text>
</a>
</g>
</g>
<!-- Node2&#45;&gt;Node5 -->
<g id="edge4" class="edge">
<title>Node2&#45;&gt;Node5</title>
<path fill="none" stroke="#63b8ff" d="M168.75,-280.83C112.5,-274.13 0,-251.27 0,-175.5 0,-175.5 0,-175.5 0,-118.5 0,-76.69 40.64,-43.37 68.76,-25.32"/>
<polygon fill="#63b8ff" stroke="#63b8ff" points="70.47,-28.38 77.16,-20.17 66.81,-22.41 70.47,-28.38"/>
</g>
<!-- Node6 -->
<g id="node6" class="node">
<title>Node6</title>
<g id="a_node6"><a xlink:href="conta_8hpp.html" target="_top" xlink:title="Classe responsável por realizar as operações selecionadas.">
<polygon fill="white" stroke="#666666" points="200.5,-239 141.5,-239 141.5,-220 200.5,-220 200.5,-239"/>
<text text-anchor="middle" x="171" y="-227" font-family="Helvetica,sans-Serif" font-size="10.00">conta.hpp</text>
</a>
</g>
</g>
<!-- Node2&#45;&gt;Node6 -->
<g id="edge5" class="edge">
<title>Node2&#45;&gt;Node6</title>
<path fill="none" stroke="#63b8ff" d="M195.21,-274.75C191.46,-267.88 186.09,-258.08 181.37,-249.45"/>
<polygon fill="#63b8ff" stroke="#63b8ff" points="184.49,-247.86 176.62,-240.77 178.35,-251.22 184.49,-247.86"/>
</g>
<!-- Node7 -->
<g id="node7" class="node">
<title>Node7</title>
<g id="a_node7"><a xlink:title=" ">
<polygon fill="#e0e0e0" stroke="#999999" points="63.5,-184 28.5,-184 28.5,-165 63.5,-165 63.5,-184"/>
<text text-anchor="middle" x="46" y="-172" font-family="Helvetica,sans-Serif" font-size="10.00">map</text>
</a>
</g>
</g>
<!-- Node2&#45;&gt;Node7 -->
<g id="edge19" class="edge">
<title>Node2&#45;&gt;Node7</title>
<path fill="none" stroke="#63b8ff" d="M186.28,-274.64C172.65,-265.78 151.22,-251.69 133,-239 109.95,-222.95 84.01,-203.88 66.49,-190.85"/>
<polygon fill="#63b8ff" stroke="#63b8ff" points="69.02,-188.37 58.91,-185.2 64.84,-193.98 69.02,-188.37"/>
</g>
<!-- Node11 -->
<g id="node11" class="node">
<title>Node11</title>
<g id="a_node11"><a xlink:href="transacao_8hpp.html" target="_top" xlink:title="Classe responsável pelo extrato.">
<polygon fill="white" stroke="#666666" points="365,-239 287,-239 287,-220 365,-220 365,-239"/>
<text text-anchor="middle" x="326" y="-227" font-family="Helvetica,sans-Serif" font-size="10.00">transacao.hpp</text>
</a>
</g>
</g>
<!-- Node2&#45;&gt;Node11 -->
<g id="edge20" class="edge">
<title>Node2&#45;&gt;Node11</title>
<path fill="none" stroke="#63b8ff" d="M221.37,-274.51C241.41,-266.08 271.6,-253.38 294.41,-243.79"/>
<polygon fill="#63b8ff" stroke="#63b8ff" points="295.69,-247.05 303.55,-239.94 292.97,-240.6 295.69,-247.05"/>
</g>
<!-- Node6&#45;&gt;Node3 -->
<g id="edge6" class="edge">
<title>Node6&#45;&gt;Node3</title>
<path fill="none" stroke="#63b8ff" d="M179.13,-219.66C186.97,-210.93 198.95,-197.04 208,-184 240.13,-137.72 247.32,-125.12 271,-74 277.65,-59.65 283.68,-42.79 287.89,-30.05"/>
<polygon fill="#63b8ff" stroke="#63b8ff" points="291.15,-31.35 290.88,-20.76 284.49,-29.21 291.15,-31.35"/>
</g>
<!-- Node6&#45;&gt;Node4 -->
<g id="edge8" class="edge">
<title>Node6&#45;&gt;Node4</title>
<path fill="none" stroke="#63b8ff" d="M189.15,-219.51C205.78,-211.27 230.64,-198.96 249.85,-189.45"/>
<polygon fill="#63b8ff" stroke="#63b8ff" points="251.35,-192.6 258.76,-185.03 248.25,-186.33 251.35,-192.6"/>
</g>
<!-- Node6&#45;&gt;Node5 -->
<g id="edge7" class="edge">
<title>Node6&#45;&gt;Node5</title>
<path fill="none" stroke="#63b8ff" d="M160.88,-219.5C151.95,-211.09 139.12,-197.78 131,-184 104.96,-139.8 103.64,-124.73 96,-74 93.83,-59.6 93.63,-43.15 93.95,-30.6"/>
<polygon fill="#63b8ff" stroke="#63b8ff" points="97.45,-30.83 94.35,-20.7 90.45,-30.55 97.45,-30.83"/>
</g>
<!-- Node6&#45;&gt;Node7 -->
<g id="edge9" class="edge">
<title>Node6&#45;&gt;Node7</title>
<path fill="none" stroke="#63b8ff" d="M149.8,-219.51C128.96,-210.68 97.06,-197.15 74.12,-187.42"/>
<polygon fill="#63b8ff" stroke="#63b8ff" points="75.63,-184.26 65.06,-183.58 72.9,-190.71 75.63,-184.26"/>
</g>
<!-- Node8 -->
<g id="node8" class="node">
<title>Node8</title>
<g id="a_node8"><a xlink:href="titular_8hpp.html" target="_top" xlink:title="Classe que cria as contas titulares.">
<polygon fill="white" stroke="#666666" points="198.5,-184 139.5,-184 139.5,-165 198.5,-165 198.5,-184"/>
<text text-anchor="middle" x="169" y="-172" font-family="Helvetica,sans-Serif" font-size="10.00">titular.hpp</text>
</a>
</g>
</g>
<!-- Node6&#45;&gt;Node8 -->
<g id="edge10" class="edge">
<title>Node6&#45;&gt;Node8</title>
<path fill="none" stroke="#63b8ff" d="M170.67,-219.75C170.43,-213.27 170.08,-204.16 169.77,-195.9"/>
<polygon fill="#63b8ff" stroke="#63b8ff" points="173.27,-195.82 169.39,-185.95 166.27,-196.08 173.27,-195.82"/>
</g>
<!-- Node8&#45;&gt;Node3 -->
<g id="edge11" class="edge">
<title>Node8&#45;&gt;Node3</title>
<path fill="none" stroke="#63b8ff" d="M177.83,-164.6C186.39,-155.83 199.56,-141.9 210,-129 237.52,-95.01 266.31,-52.68 282.01,-28.92"/>
<polygon fill="#63b8ff" stroke="#63b8ff" points="284.87,-30.95 287.43,-20.67 279.01,-27.11 284.87,-30.95"/>
</g>
<!-- Node8&#45;&gt;Node5 -->
<g id="edge12" class="edge">
<title>Node8&#45;&gt;Node5</title>
<path fill="none" stroke="#63b8ff" d="M157.13,-164.55C147.11,-156.37 133.12,-143.38 125,-129 107.23,-97.51 99.82,-55.45 96.86,-30.83"/>
<polygon fill="#63b8ff" stroke="#63b8ff" points="100.34,-30.5 95.81,-20.92 93.38,-31.23 100.34,-30.5"/>
</g>
<!-- Node9 -->
<g id="node9" class="node">
<title>Node9</title>
<g id="a_node9"><a xlink:href="pessoa_8hpp.html" target="_top" xlink:title="Classe que cria a pessoa dona da conta.">
<polygon fill="white" stroke="#666666" points="200.5,-129 133.5,-129 133.5,-110 200.5,-110 200.5,-129"/>
<text text-anchor="middle" x="167" y="-117" font-family="Helvetica,sans-Serif" font-size="10.00">pessoa.hpp</text>
</a>
</g>
</g>
<!-- Node8&#45;&gt;Node9 -->
<g id="edge13" class="edge">
<title>Node8&#45;&gt;Node9</title>
<path fill="none" stroke="#63b8ff" d="M168.67,-164.75C168.43,-158.27 168.08,-149.16 167.77,-140.9"/>
<polygon fill="#63b8ff" stroke="#63b8ff" points="171.27,-140.82 167.39,-130.95 164.27,-141.08 171.27,-140.82"/>
</g>
<!-- Node9&#45;&gt;Node3 -->
<g id="edge14" class="edge">
<title>Node9&#45;&gt;Node3</title>
<path fill="none" stroke="#63b8ff" d="M177.39,-109.66C198.7,-91.55 247.6,-49.96 274.82,-26.81"/>
<polygon fill="#63b8ff" stroke="#63b8ff" points="276.96,-29.59 282.31,-20.44 272.43,-24.25 276.96,-29.59"/>
</g>
<!-- Node9&#45;&gt;Node5 -->
<g id="edge15" class="edge">
<title>Node9&#45;&gt;Node5</title>
<path fill="none" stroke="#63b8ff" d="M159.66,-109.52C152.55,-100.69 141.62,-86.71 133,-74 123.07,-59.36 112.83,-42.1 105.49,-29.28"/>
<polygon fill="#63b8ff" stroke="#63b8ff" points="108.57,-27.62 100.6,-20.64 102.48,-31.07 108.57,-27.62"/>
</g>
<!-- Node10 -->
<g id="node10" class="node">
<title>Node10</title>
<g id="a_node10"><a xlink:href="cpf_8hpp.html" target="_top" xlink:title="Classe que verifica a validade do CPF.">
<polygon fill="white" stroke="#666666" points="190,-74 142,-74 142,-55 190,-55 190,-74"/>
<text text-anchor="middle" x="166" y="-62" font-family="Helvetica,sans-Serif" font-size="10.00">cpf.hpp</text>
</a>
</g>
</g>
<!-- Node9&#45;&gt;Node10 -->
<g id="edge16" class="edge">
<title>Node9&#45;&gt;Node10</title>
<path fill="none" stroke="#63b8ff" d="M166.83,-109.75C166.71,-103.27 166.54,-94.16 166.38,-85.9"/>
<polygon fill="#63b8ff" stroke="#63b8ff" points="169.89,-85.89 166.2,-75.96 162.89,-86.02 169.89,-85.89"/>
</g>
<!-- Node10&#45;&gt;Node3 -->
<g id="edge18" class="edge">
<title>Node10&#45;&gt;Node3</title>
<path fill="none" stroke="#63b8ff" d="M187.71,-54.51C208.16,-46.04 239.02,-33.27 262.23,-23.66"/>
<polygon fill="#63b8ff" stroke="#63b8ff" points="263.31,-27 271.21,-19.94 260.63,-20.53 263.31,-27"/>
</g>
<!-- Node10&#45;&gt;Node5 -->
<g id="edge17" class="edge">
<title>Node10&#45;&gt;Node5</title>
<path fill="none" stroke="#63b8ff" d="M153.96,-54.51C143.59,-46.77 128.4,-35.43 116.03,-26.2"/>
<polygon fill="#63b8ff" stroke="#63b8ff" points="118.19,-23.44 108.08,-20.26 114,-29.05 118.19,-23.44"/>
</g>
<!-- Node11&#45;&gt;Node3 -->
<g id="edge21" class="edge">
<title>Node11&#45;&gt;Node3</title>
<path fill="none" stroke="#63b8ff" d="M330.12,-219.69C341.82,-193.3 372.76,-113.11 346,-55 340.5,-43.06 330.04,-33.13 319.94,-25.7"/>
<polygon fill="#63b8ff" stroke="#63b8ff" points="322.04,-22.89 311.79,-20.21 318.12,-28.7 322.04,-22.89"/>
</g>
<!-- Node11&#45;&gt;Node4 -->
<g id="edge22" class="edge">
<title>Node11&#45;&gt;Node4</title>
<path fill="none" stroke="#63b8ff" d="M318.07,-219.75C311.44,-212.43 301.78,-201.76 293.61,-192.74"/>
<polygon fill="#63b8ff" stroke="#63b8ff" points="296.42,-190.63 287.11,-185.56 291.23,-195.33 296.42,-190.63"/>
</g>
<!-- Node11&#45;&gt;Node5 -->
<g id="edge23" class="edge">
<title>Node11&#45;&gt;Node5</title>
<path fill="none" stroke="#63b8ff" d="M324.93,-219.74C323.07,-206.97 318.4,-182.81 308,-165 273.29,-105.57 255.92,-93.7 199,-55 176.56,-39.74 148.05,-27.99 126.56,-20.41"/>
<polygon fill="#63b8ff" stroke="#63b8ff" points="127.75,-17.12 117.16,-17.21 125.5,-23.74 127.75,-17.12"/>
</g>
</g>
</svg>
