<?xml version="1.0" encoding="UTF-8" standalone="no"?>
<!DOCTYPE svg PUBLIC "-//W3C//DTD SVG 1.1//EN"
 "http://www.w3.org/Graphics/SVG/1.1/DTD/svg11.dtd">
<!-- Generated by graphviz version 7.0.3 (20221126.0506)
 -->
<!-- Title: Titular Pages: 1 -->
<svg width="239pt" height="370pt"
 viewBox="0.00 0.00 238.50 370.00" xmlns="http://www.w3.org/2000/svg" xmlns:xlink="http://www.w3.org/1999/xlink">
<g id="graph0" class="graph" transform="scale(1 1) rotate(0) translate(4 366)">
<title>Titular</title>
<!-- Node1 -->
<g id="node1" class="node">
<title>Node1</title>
<g id="a_node1"><a xlink:title="Classe responsável pela criação do login.">
<polygon fill="#999999" stroke="#666666" points="155,-74 73,-74 73,0 155,0 155,-74"/>
<text text-anchor="middle" x="114" y="-62" font-family="Helvetica,sans-Serif" font-size="10.00">{Titular</text>
<text text-anchor="start" x="81" y="-51" font-family="Helvetica,sans-Serif" font-size="10.00">||+ Titular()</text>
<text text-anchor="start" x="81" y="-40" font-family="Helvetica,sans-Serif" font-size="10.00">+ Titular()</text>
<text text-anchor="start" x="81" y="-29" font-family="Helvetica,sans-Serif" font-size="10.00">+ get_senha()</text>
<text text-anchor="start" x="81" y="-18" font-family="Helvetica,sans-Serif" font-size="10.00">+ get_usuario()</text>
<text text-anchor="middle" x="114" y="-7" font-family="Helvetica,sans-Serif" font-size="10.00">}</text>
</a>
</g>
</g>
<!-- Node2 -->
<g id="node2" class="node">
<title>Node2</title>
<g id="a_node2"><a xlink:href="class_pessoa.html" target="_top" xlink:title="Classe criadora das pessoas.">
<polygon fill="white" stroke="#666666" points="151,-185 77,-185 77,-111 151,-111 151,-185"/>
<text text-anchor="middle" x="114" y="-173" font-family="Helvetica,sans-Serif" font-size="10.00">{Pessoa</text>
<text text-anchor="start" x="85" y="-162" font-family="Helvetica,sans-Serif" font-size="10.00">||+ Pessoa()</text>
<text text-anchor="start" x="85" y="-151" font-family="Helvetica,sans-Serif" font-size="10.00">+ get_nome()</text>
<text text-anchor="start" x="85" y="-140" font-family="Helvetica,sans-Serif" font-size="10.00">+ get_idade()</text>
<text text-anchor="start" x="85" y="-129" font-family="Helvetica,sans-Serif" font-size="10.00">+ get_cpf()</text>
<text text-anchor="middle" x="114" y="-118" font-family="Helvetica,sans-Serif" font-size="10.00">}</text>
</a>
</g>
</g>
<!-- Node2&#45;&gt;Node1 -->
<g id="edge1" class="edge">
<title>Node2&#45;&gt;Node1</title>
<path fill="none" stroke="#63b8ff" d="M114,-99.38C114,-90.91 114,-82.22 114,-74.14"/>
<polygon fill="none" stroke="#63b8ff" points="110.5,-99.19 114,-109.19 117.5,-99.19 110.5,-99.19"/>
</g>
<!-- Node3 -->
<g id="node3" class="node">
<title>Node3</title>
<g id="a_node3"><a xlink:title=" ">
<polygon fill="white" stroke="#666666" points="80.5,-273 17.5,-273 17.5,-243 80.5,-243 80.5,-273"/>
<text text-anchor="middle" x="49" y="-261" font-family="Helvetica,sans-Serif" font-size="10.00">{std::string</text>
<text text-anchor="middle" x="49" y="-250" font-family="Helvetica,sans-Serif" font-size="10.00">||}</text>
</a>
</g>
</g>
<!-- Node3&#45;&gt;Node2 -->
<g id="edge2" class="edge">
<title>Node3&#45;&gt;Node2</title>
<path fill="none" stroke="#404040" d="M55.9,-242.53C61.3,-231.5 69.19,-216.05 77,-203 78.35,-200.75 79.75,-198.47 81.19,-196.18"/>
<polygon fill="none" stroke="#404040" points="81.1,-196.33 81,-189.12 87.62,-186.25 87.72,-193.46 81.1,-196.33"/>
<text text-anchor="middle" x="93.5" y="-206" font-family="Helvetica,sans-Serif" font-size="10.00"> #nome</text>
</g>
<!-- Node4 -->
<g id="node4" class="node">
<title>Node4</title>
<g id="a_node4"><a xlink:title=" ">
<polygon fill="white" stroke="#666666" points="98,-362 0,-362 0,-321 98,-321 98,-362"/>
<text text-anchor="start" x="8" y="-350" font-family="Helvetica,sans-Serif" font-size="10.00">{std::basic_string&lt;</text>
<text text-anchor="middle" x="49" y="-339" font-family="Helvetica,sans-Serif" font-size="10.00"> Char &gt;</text>
<text text-anchor="middle" x="49" y="-328" font-family="Helvetica,sans-Serif" font-size="10.00">||}</text>
</a>
</g>
</g>
<!-- Node4&#45;&gt;Node3 -->
<g id="edge3" class="edge">
<title>Node4&#45;&gt;Node3</title>
<path fill="none" stroke="#63b8ff" d="M49,-309.45C49,-297.07 49,-283.41 49,-273.44"/>
<polygon fill="none" stroke="#63b8ff" points="45.5,-309.26 49,-319.26 52.5,-309.26 45.5,-309.26"/>
</g>
<!-- Node5 -->
<g id="node5" class="node">
<title>Node5</title>
<g id="a_node5"><a xlink:title=" ">
<polygon fill="white" stroke="#666666" points="129,-273 99,-273 99,-243 129,-243 129,-273"/>
<text text-anchor="middle" x="114" y="-261" font-family="Helvetica,sans-Serif" font-size="10.00">{int</text>
<text text-anchor="middle" x="114" y="-250" font-family="Helvetica,sans-Serif" font-size="10.00">||}</text>
</a>
</g>
</g>
<!-- Node5&#45;&gt;Node2 -->
<g id="edge4" class="edge">
<title>Node5&#45;&gt;Node2</title>
<path fill="none" stroke="#404040" d="M114,-242.88C114,-231.42 114,-214.55 114,-198.25"/>
<polygon fill="none" stroke="#404040" points="114,-198.33 110,-192.33 114,-186.33 118,-192.33 114,-198.33"/>
<text text-anchor="middle" x="130" y="-206" font-family="Helvetica,sans-Serif" font-size="10.00"> #idade</text>
</g>
<!-- Node6 -->
<g id="node6" class="node">
<title>Node6</title>
<g id="a_node6"><a xlink:href="class_cpf.html" target="_top" xlink:title="Classe responsável por verificar a validade do cpf.">
<polygon fill="white" stroke="#666666" points="230.5,-284 147.5,-284 147.5,-232 230.5,-232 230.5,-284"/>
<text text-anchor="middle" x="189" y="-272" font-family="Helvetica,sans-Serif" font-size="10.00">{Cpf</text>
<text text-anchor="start" x="155.5" y="-261" font-family="Helvetica,sans-Serif" font-size="10.00">||+ Cpf()</text>
<text text-anchor="start" x="155.5" y="-250" font-family="Helvetica,sans-Serif" font-size="10.00">+ get_numero()</text>
<text text-anchor="middle" x="189" y="-239" font-family="Helvetica,sans-Serif" font-size="10.00">}</text>
</a>
</g>
</g>
<!-- Node6&#45;&gt;Node2 -->
<g id="edge5" class="edge">
<title>Node6&#45;&gt;Node2</title>
<path fill="none" stroke="#404040" d="M171.42,-231.68C163.98,-220.97 155.08,-208.15 146.52,-195.83"/>
<polygon fill="none" stroke="#404040" points="146.5,-195.8 139.79,-193.16 139.66,-185.95 146.36,-188.59 146.5,-195.8"/>
<text text-anchor="middle" x="169" y="-206" font-family="Helvetica,sans-Serif" font-size="10.00"> #cpf</text>
</g>
</g>
</svg>
