<?xml version="1.0" encoding="UTF-8" standalone="no"?>
<!DOCTYPE svg PUBLIC "-//W3C//DTD SVG 1.1//EN"
 "http://www.w3.org/Graphics/SVG/1.1/DTD/svg11.dtd">
<!-- Generated by graphviz version 7.0.3 (20221126.0506)
 -->
<!-- Title: Banco::adicionaConta Pages: 1 -->
<svg width="255pt" height="64pt"
 viewBox="0.00 0.00 255.00 64.00" xmlns="http://www.w3.org/2000/svg" xmlns:xlink="http://www.w3.org/1999/xlink">
<g id="graph0" class="graph" transform="scale(1 1) rotate(0) translate(4 60)">
<title>Banco::adicionaConta</title>
<!-- Node1 -->
<g id="node1" class="node">
<title>Node1</title>
<g id="a_node1"><a xlink:title="Adiciona conta criada ao banco, por referência.">
<polygon fill="#999999" stroke="#666666" points="112,-37 0,-37 0,-18 112,-18 112,-37"/>
<text text-anchor="middle" x="56" y="-25" font-family="Helvetica,sans-Serif" font-size="10.00">Banco::adicionaConta</text>
</a>
</g>
</g>
<!-- Node2 -->
<g id="node2" class="node">
<title>Node2</title>
<g id="a_node2"><a xlink:href="class_conta.html#ad2edd6afe6af8b7d0705a5cbb28640e1" target="_top" xlink:title="Busca o titular da conta logada.">
<polygon fill="white" stroke="#666666" points="243,-56 152,-56 152,-37 243,-37 243,-56"/>
<text text-anchor="middle" x="197.5" y="-44" font-family="Helvetica,sans-Serif" font-size="10.00">Conta::get_titular</text>
</a>
</g>
</g>
<!-- Node1&#45;&gt;Node2 -->
<g id="edge1" class="edge">
<title>Node1&#45;&gt;Node2</title>
<path fill="none" stroke="#63b8ff" d="M112.13,-35.01C121.45,-36.28 131.12,-37.6 140.46,-38.87"/>
<polygon fill="#63b8ff" stroke="#63b8ff" points="139.75,-42.3 150.13,-40.18 140.69,-35.37 139.75,-42.3"/>
</g>
<!-- Node3 -->
<g id="node3" class="node">
<title>Node3</title>
<g id="a_node3"><a xlink:href="class_titular.html#abf98b5451eb5d30a49324d510df17f35" target="_top" xlink:title="Definido o usuário titular da conta.">
<polygon fill="white" stroke="#666666" points="247,-19 148,-19 148,0 247,0 247,-19"/>
<text text-anchor="middle" x="197.5" y="-7" font-family="Helvetica,sans-Serif" font-size="10.00">Titular::get_usuario</text>
</a>
</g>
</g>
<!-- Node1&#45;&gt;Node3 -->
<g id="edge2" class="edge">
<title>Node1&#45;&gt;Node3</title>
<path fill="none" stroke="#63b8ff" d="M112.13,-20.39C120.11,-19.36 128.34,-18.29 136.41,-17.25"/>
<polygon fill="#63b8ff" stroke="#63b8ff" points="136.67,-20.75 146.14,-16 135.78,-13.81 136.67,-20.75"/>
</g>
</g>
</svg>
