<?xml version="1.0" encoding="UTF-8" standalone="no"?>
<!DOCTYPE svg PUBLIC "-//W3C//DTD SVG 1.1//EN"
 "http://www.w3.org/Graphics/SVG/1.1/DTD/svg11.dtd">
<!-- Generated by graphviz version 7.0.3 (20221126.0506)
 -->
<!-- Title: Banco Pages: 1 -->
<svg width="473pt" height="839pt"
 viewBox="0.00 0.00 473.00 839.00" xmlns="http://www.w3.org/2000/svg" xmlns:xlink="http://www.w3.org/1999/xlink">
<g id="graph0" class="graph" transform="scale(1 1) rotate(0) translate(4 835)">
<title>Banco</title>
<!-- Node1 -->
<g id="node1" class="node">
<title>Node1</title>
<g id="a_node1"><a xlink:title="Classe que cria contas e organiza opções escolhidas.">
<polygon fill="#999999" stroke="#666666" points="338.5,-107 223.5,-107 223.5,0 338.5,0 338.5,-107"/>
<text text-anchor="middle" x="281" y="-95" font-family="Helvetica,sans-Serif" font-size="10.00">{Banco</text>
<text text-anchor="start" x="231.5" y="-84" font-family="Helvetica,sans-Serif" font-size="10.00">||+ Banco()</text>
<text text-anchor="start" x="231.5" y="-73" font-family="Helvetica,sans-Serif" font-size="10.00">+ adicionaConta()</text>
<text text-anchor="start" x="231.5" y="-62" font-family="Helvetica,sans-Serif" font-size="10.00">+ login()</text>
<text text-anchor="start" x="231.5" y="-51" font-family="Helvetica,sans-Serif" font-size="10.00">+ selecionaOperacao()</text>
<text text-anchor="start" x="231.5" y="-40" font-family="Helvetica,sans-Serif" font-size="10.00">+ realizaOperacao()</text>
<text text-anchor="start" x="231.5" y="-29" font-family="Helvetica,sans-Serif" font-size="10.00">+ get_saldo()</text>
<text text-anchor="start" x="231.5" y="-18" font-family="Helvetica,sans-Serif" font-size="10.00">+ imprimeExtrato()</text>
<text text-anchor="middle" x="281" y="-7" font-family="Helvetica,sans-Serif" font-size="10.00">}</text>
</a>
</g>
</g>
<!-- Node2 -->
<g id="node2" class="node">
<title>Node2</title>
<g id="a_node2"><a xlink:title=" ">
<polygon fill="white" stroke="#666666" points="126,-562 0,-562 0,-532 126,-532 126,-562"/>
<text text-anchor="middle" x="63" y="-550" font-family="Helvetica,sans-Serif" font-size="10.00">{std::vector&lt; std::string &gt;</text>
<text text-anchor="middle" x="63" y="-539" font-family="Helvetica,sans-Serif" font-size="10.00">||}</text>
</a>
</g>
</g>
<!-- Node2&#45;&gt;Node1 -->
<g id="edge1" class="edge">
<title>Node2&#45;&gt;Node1</title>
<path fill="none" stroke="#404040" d="M64.47,-531.76C66.78,-508.07 71,-459.08 71,-417.5 71,-417.5 71,-417.5 71,-173.5 71,-107.97 149.36,-78.09 210.34,-64.77"/>
<polygon fill="none" stroke="#404040" points="210.42,-64.75 215.5,-59.63 222.18,-62.35 217.1,-67.47 210.42,-64.75"/>
<text text-anchor="middle" x="88.5" y="-315" font-family="Helvetica,sans-Serif" font-size="10.00"> +Users</text>
</g>
<!-- Node3 -->
<g id="node3" class="node">
<title>Node3</title>
<g id="a_node3"><a xlink:title=" ">
<polygon fill="white" stroke="#666666" points="172.5,-742 109.5,-742 109.5,-712 172.5,-712 172.5,-742"/>
<text text-anchor="middle" x="141" y="-730" font-family="Helvetica,sans-Serif" font-size="10.00">{std::string</text>
<text text-anchor="middle" x="141" y="-719" font-family="Helvetica,sans-Serif" font-size="10.00">||}</text>
</a>
</g>
</g>
<!-- Node3&#45;&gt;Node2 -->
<g id="edge2" class="edge">
<title>Node3&#45;&gt;Node2</title>
<path fill="none" stroke="#404040" d="M109.24,-711.6C97.5,-704.65 85.3,-695.14 78,-683 58.06,-649.83 57.52,-603.69 59.7,-574.86"/>
<polygon fill="none" stroke="#404040" points="59.68,-575.07 56.28,-568.71 60.84,-563.12 64.24,-569.48 59.68,-575.07"/>
<text text-anchor="middle" x="102.5" y="-675" font-family="Helvetica,sans-Serif" font-size="10.00"> +elements</text>
</g>
<!-- Node5 -->
<g id="node5" class="node">
<title>Node5</title>
<g id="a_node5"><a xlink:title=" ">
<polygon fill="white" stroke="#666666" points="277.5,-195 164.5,-195 164.5,-154 277.5,-154 277.5,-195"/>
<text text-anchor="start" x="172.5" y="-183" font-family="Helvetica,sans-Serif" font-size="10.00">{std::map&lt; std::string,</text>
<text text-anchor="middle" x="221" y="-172" font-family="Helvetica,sans-Serif" font-size="10.00"> Conta * &gt;</text>
<text text-anchor="middle" x="221" y="-161" font-family="Helvetica,sans-Serif" font-size="10.00">||}</text>
</a>
</g>
</g>
<!-- Node3&#45;&gt;Node5 -->
<g id="edge5" class="edge">
<title>Node3&#45;&gt;Node5</title>
<path fill="none" stroke="#404040" d="M141,-711.67C141,-690.99 141,-651.56 141,-618 141,-618 141,-618 141,-316.5 141,-281.98 146.38,-272.26 163,-242 170.34,-228.63 180.74,-215.61 190.71,-204.68"/>
<polygon fill="none" stroke="#404040" points="190.76,-204.63 191.99,-197.53 199.03,-195.94 197.79,-203.04 190.76,-204.63"/>
<text text-anchor="middle" x="156.5" y="-474.5" font-family="Helvetica,sans-Serif" font-size="10.00"> +keys</text>
</g>
<!-- Node8 -->
<g id="node8" class="node">
<title>Node8</title>
<g id="a_node8"><a xlink:href="class_pessoa.html" target="_top" xlink:title="Classe criadora das pessoas.">
<polygon fill="white" stroke="#666666" points="267,-654 193,-654 193,-580 267,-580 267,-654"/>
<text text-anchor="middle" x="230" y="-642" font-family="Helvetica,sans-Serif" font-size="10.00">{Pessoa</text>
<text text-anchor="start" x="201" y="-631" font-family="Helvetica,sans-Serif" font-size="10.00">||+ Pessoa()</text>
<text text-anchor="start" x="201" y="-620" font-family="Helvetica,sans-Serif" font-size="10.00">+ get_nome()</text>
<text text-anchor="start" x="201" y="-609" font-family="Helvetica,sans-Serif" font-size="10.00">+ get_idade()</text>
<text text-anchor="start" x="201" y="-598" font-family="Helvetica,sans-Serif" font-size="10.00">+ get_cpf()</text>
<text text-anchor="middle" x="230" y="-587" font-family="Helvetica,sans-Serif" font-size="10.00">}</text>
</a>
</g>
</g>
<!-- Node3&#45;&gt;Node8 -->
<g id="edge9" class="edge">
<title>Node3&#45;&gt;Node8</title>
<path fill="none" stroke="#404040" d="M152.64,-711.88C162.64,-699.74 177.65,-681.52 191.8,-664.36"/>
<polygon fill="none" stroke="#404040" points="191.78,-664.38 192.51,-657.21 199.41,-655.12 198.68,-662.3 191.78,-664.38"/>
<text text-anchor="middle" x="202.5" y="-675" font-family="Helvetica,sans-Serif" font-size="10.00"> #nome</text>
</g>
<!-- Node4 -->
<g id="node4" class="node">
<title>Node4</title>
<g id="a_node4"><a xlink:title=" ">
<polygon fill="white" stroke="#666666" points="190,-831 92,-831 92,-790 190,-790 190,-831"/>
<text text-anchor="start" x="100" y="-819" font-family="Helvetica,sans-Serif" font-size="10.00">{std::basic_string&lt;</text>
<text text-anchor="middle" x="141" y="-808" font-family="Helvetica,sans-Serif" font-size="10.00"> Char &gt;</text>
<text text-anchor="middle" x="141" y="-797" font-family="Helvetica,sans-Serif" font-size="10.00">||}</text>
</a>
</g>
</g>
<!-- Node4&#45;&gt;Node3 -->
<g id="edge3" class="edge">
<title>Node4&#45;&gt;Node3</title>
<path fill="none" stroke="#63b8ff" d="M141,-778.45C141,-766.07 141,-752.41 141,-742.44"/>
<polygon fill="none" stroke="#63b8ff" points="137.5,-778.26 141,-788.26 144.5,-778.26 137.5,-778.26"/>
</g>
<!-- Node5&#45;&gt;Node1 -->
<g id="edge4" class="edge">
<title>Node5&#45;&gt;Node1</title>
<path fill="none" stroke="#404040" d="M231.04,-153.58C235.95,-143.86 242.15,-131.55 248.51,-118.94"/>
<polygon fill="none" stroke="#404040" points="248.55,-118.86 247.68,-111.71 253.95,-108.15 254.82,-115.31 248.55,-118.86"/>
<text text-anchor="middle" x="264" y="-128" font-family="Helvetica,sans-Serif" font-size="10.00"> +Contas</text>
</g>
<!-- Node6 -->
<g id="node6" class="node">
<title>Node6</title>
<g id="a_node6"><a xlink:href="class_conta.html" target="_top" xlink:title="Classe que direciona as operações criadas na classe banco.">
<polygon fill="white" stroke="#666666" points="270,-393 172,-393 172,-242 270,-242 270,-393"/>
<text text-anchor="middle" x="221" y="-381" font-family="Helvetica,sans-Serif" font-size="10.00">{Conta</text>
<text text-anchor="start" x="180" y="-370" font-family="Helvetica,sans-Serif" font-size="10.00">||+ Conta()</text>
<text text-anchor="start" x="180" y="-359" font-family="Helvetica,sans-Serif" font-size="10.00">+ realizaSaque()</text>
<text text-anchor="start" x="180" y="-348" font-family="Helvetica,sans-Serif" font-size="10.00">+ realizaDeposito()</text>
<text text-anchor="start" x="180" y="-337" font-family="Helvetica,sans-Serif" font-size="10.00">+ get_saldo()</text>
<text text-anchor="start" x="180" y="-326" font-family="Helvetica,sans-Serif" font-size="10.00">+ imprimeSaldo()</text>
<text text-anchor="start" x="180" y="-315" font-family="Helvetica,sans-Serif" font-size="10.00">+ transfere()</text>
<text text-anchor="start" x="180" y="-304" font-family="Helvetica,sans-Serif" font-size="10.00">+ ~Conta()</text>
<text text-anchor="start" x="180" y="-293" font-family="Helvetica,sans-Serif" font-size="10.00">+ get_titular()</text>
<text text-anchor="start" x="180" y="-282" font-family="Helvetica,sans-Serif" font-size="10.00">+ enviaValor()</text>
<text text-anchor="start" x="180" y="-271" font-family="Helvetica,sans-Serif" font-size="10.00">+ recebeValor()</text>
<text text-anchor="start" x="180" y="-260" font-family="Helvetica,sans-Serif" font-size="10.00"># taxaSaque()</text>
<text text-anchor="middle" x="221" y="-249" font-family="Helvetica,sans-Serif" font-size="10.00">}</text>
</a>
</g>
</g>
<!-- Node6&#45;&gt;Node5 -->
<g id="edge6" class="edge">
<title>Node6&#45;&gt;Node5</title>
<path fill="none" stroke="#404040" d="M221,-241.87C221,-230.06 221,-218.41 221,-208.24"/>
<polygon fill="none" stroke="#404040" points="221,-208.33 217,-202.33 221,-196.33 225,-202.33 221,-208.33"/>
<text text-anchor="middle" x="245.5" y="-216" font-family="Helvetica,sans-Serif" font-size="10.00"> +elements</text>
</g>
<!-- Node7 -->
<g id="node7" class="node">
<title>Node7</title>
<g id="a_node7"><a xlink:href="class_titular.html" target="_top" xlink:title="Classe responsável pela criação do login.">
<polygon fill="white" stroke="#666666" points="272,-514 190,-514 190,-440 272,-440 272,-514"/>
<text text-anchor="middle" x="231" y="-502" font-family="Helvetica,sans-Serif" font-size="10.00">{Titular</text>
<text text-anchor="start" x="198" y="-491" font-family="Helvetica,sans-Serif" font-size="10.00">||+ Titular()</text>
<text text-anchor="start" x="198" y="-480" font-family="Helvetica,sans-Serif" font-size="10.00">+ Titular()</text>
<text text-anchor="start" x="198" y="-469" font-family="Helvetica,sans-Serif" font-size="10.00">+ get_senha()</text>
<text text-anchor="start" x="198" y="-458" font-family="Helvetica,sans-Serif" font-size="10.00">+ get_usuario()</text>
<text text-anchor="middle" x="231" y="-447" font-family="Helvetica,sans-Serif" font-size="10.00">}</text>
</a>
</g>
</g>
<!-- Node7&#45;&gt;Node6 -->
<g id="edge7" class="edge">
<title>Node7&#45;&gt;Node6</title>
<path fill="none" stroke="#404040" d="M212.35,-439.51C210.14,-433.78 208.24,-427.82 207,-422 205.9,-416.81 205.23,-411.46 204.92,-406.04"/>
<polygon fill="none" stroke="#404040" points="204.92,-406.25 200.85,-400.3 204.78,-394.25 208.85,-400.21 204.92,-406.25"/>
<text text-anchor="middle" x="223.5" y="-414" font-family="Helvetica,sans-Serif" font-size="10.00"> #titular</text>
</g>
<!-- Node8&#45;&gt;Node7 -->
<g id="edge8" class="edge">
<title>Node8&#45;&gt;Node7</title>
<path fill="none" stroke="#63b8ff" d="M230.34,-568.48C230.47,-550.8 230.62,-531.03 230.74,-514.49"/>
<polygon fill="none" stroke="#63b8ff" points="226.85,-568.2 230.27,-578.23 233.85,-568.25 226.85,-568.2"/>
</g>
<!-- Node9 -->
<g id="node9" class="node">
<title>Node9</title>
<g id="a_node9"><a xlink:title=" ">
<polygon fill="white" stroke="#666666" points="245,-742 215,-742 215,-712 245,-712 245,-742"/>
<text text-anchor="middle" x="230" y="-730" font-family="Helvetica,sans-Serif" font-size="10.00">{int</text>
<text text-anchor="middle" x="230" y="-719" font-family="Helvetica,sans-Serif" font-size="10.00">||}</text>
</a>
</g>
</g>
<!-- Node9&#45;&gt;Node8 -->
<g id="edge10" class="edge">
<title>Node9&#45;&gt;Node8</title>
<path fill="none" stroke="#404040" d="M230,-711.88C230,-700.42 230,-683.55 230,-667.25"/>
<polygon fill="none" stroke="#404040" points="230,-667.33 226,-661.33 230,-655.33 234,-661.33 230,-667.33"/>
<text text-anchor="middle" x="246" y="-675" font-family="Helvetica,sans-Serif" font-size="10.00"> #idade</text>
</g>
<!-- Node10 -->
<g id="node10" class="node">
<title>Node10</title>
<g id="a_node10"><a xlink:href="class_cpf.html" target="_top" xlink:title="Classe responsável por verificar a validade do cpf.">
<polygon fill="white" stroke="#666666" points="346.5,-753 263.5,-753 263.5,-701 346.5,-701 346.5,-753"/>
<text text-anchor="middle" x="305" y="-741" font-family="Helvetica,sans-Serif" font-size="10.00">{Cpf</text>
<text text-anchor="start" x="271.5" y="-730" font-family="Helvetica,sans-Serif" font-size="10.00">||+ Cpf()</text>
<text text-anchor="start" x="271.5" y="-719" font-family="Helvetica,sans-Serif" font-size="10.00">+ get_numero()</text>
<text text-anchor="middle" x="305" y="-708" font-family="Helvetica,sans-Serif" font-size="10.00">}</text>
</a>
</g>
</g>
<!-- Node10&#45;&gt;Node8 -->
<g id="edge11" class="edge">
<title>Node10&#45;&gt;Node8</title>
<path fill="none" stroke="#404040" d="M287.42,-700.68C279.98,-689.97 271.08,-677.15 262.52,-664.83"/>
<polygon fill="none" stroke="#404040" points="262.5,-664.8 255.79,-662.16 255.66,-654.95 262.36,-657.59 262.5,-664.8"/>
<text text-anchor="middle" x="286" y="-675" font-family="Helvetica,sans-Serif" font-size="10.00"> #cpf</text>
</g>
<!-- Node11 -->
<g id="node11" class="node">
<title>Node11</title>
<g id="a_node11"><a xlink:title=" ">
<polygon fill="white" stroke="#666666" points="328,-492 290,-492 290,-462 328,-462 328,-492"/>
<text text-anchor="middle" x="309" y="-480" font-family="Helvetica,sans-Serif" font-size="10.00">{float</text>
<text text-anchor="middle" x="309" y="-469" font-family="Helvetica,sans-Serif" font-size="10.00">||}</text>
</a>
</g>
</g>
<!-- Node11&#45;&gt;Node1 -->
<g id="edge15" class="edge">
<title>Node11&#45;&gt;Node1</title>
<path fill="none" stroke="#404040" d="M308.34,-461.61C306.11,-413.74 298.38,-255.53 288,-125 287.87,-123.38 287.74,-121.74 287.6,-120.08"/>
<polygon fill="none" stroke="#404040" points="287.6,-120.07 283.09,-114.45 286.54,-108.12 291.05,-113.74 287.6,-120.07"/>
<text text-anchor="middle" x="311.5" y="-216" font-family="Helvetica,sans-Serif" font-size="10.00"> +saldo</text>
</g>
<!-- Node11&#45;&gt;Node6 -->
<g id="edge12" class="edge">
<title>Node11&#45;&gt;Node6</title>
<path fill="none" stroke="#404040" d="M298.49,-461.65C293.4,-454.92 287.08,-446.89 281,-440 273.51,-431.52 269.25,-431.43 263,-422 259.41,-416.58 256.04,-410.81 252.89,-404.87"/>
<polygon fill="none" stroke="#404040" points="252.87,-404.83 246.62,-401.24 247.52,-394.09 253.78,-397.67 252.87,-404.83"/>
<text text-anchor="middle" x="279" y="-414" font-family="Helvetica,sans-Serif" font-size="10.00"> #saldo</text>
</g>
<!-- Node12 -->
<g id="node12" class="node">
<title>Node12</title>
<g id="a_node12"><a xlink:title=" ">
<polygon fill="white" stroke="#666666" points="465,-189.5 337,-189.5 337,-159.5 465,-159.5 465,-189.5"/>
<text text-anchor="middle" x="401" y="-177.5" font-family="Helvetica,sans-Serif" font-size="10.00">{std::vector&lt; Transacao &gt;</text>
<text text-anchor="middle" x="401" y="-166.5" font-family="Helvetica,sans-Serif" font-size="10.00">||}</text>
</a>
</g>
</g>
<!-- Node12&#45;&gt;Node1 -->
<g id="edge13" class="edge">
<title>Node12&#45;&gt;Node1</title>
<path fill="none" stroke="#404040" d="M386.76,-159.38C375.76,-148.47 359.71,-132.55 343.42,-116.4"/>
<polygon fill="none" stroke="#404040" points="343.53,-116.51 336.46,-115.13 335.01,-108.06 342.09,-109.45 343.53,-116.51"/>
<text text-anchor="middle" x="392" y="-128" font-family="Helvetica,sans-Serif" font-size="10.00"> +transacoes</text>
</g>
<!-- Node13 -->
<g id="node13" class="node">
<title>Node13</title>
<g id="a_node13"><a xlink:href="class_transacao.html" target="_top" xlink:title="Classe organizadora das operações realizadas.">
<polygon fill="white" stroke="#666666" points="441.5,-354.5 360.5,-354.5 360.5,-280.5 441.5,-280.5 441.5,-354.5"/>
<text text-anchor="middle" x="401" y="-342.5" font-family="Helvetica,sans-Serif" font-size="10.00">{Transacao</text>
<text text-anchor="start" x="368.5" y="-331.5" font-family="Helvetica,sans-Serif" font-size="10.00">||+ Transacao()</text>
<text text-anchor="start" x="368.5" y="-320.5" font-family="Helvetica,sans-Serif" font-size="10.00">+ get_valor()</text>
<text text-anchor="start" x="368.5" y="-309.5" font-family="Helvetica,sans-Serif" font-size="10.00">+ get_tipo()</text>
<text text-anchor="start" x="368.5" y="-298.5" font-family="Helvetica,sans-Serif" font-size="10.00">+ get_autor()</text>
<text text-anchor="middle" x="401" y="-287.5" font-family="Helvetica,sans-Serif" font-size="10.00">}</text>
</a>
</g>
</g>
<!-- Node13&#45;&gt;Node12 -->
<g id="edge14" class="edge">
<title>Node13&#45;&gt;Node12</title>
<path fill="none" stroke="#404040" d="M401,-280.19C401,-256.09 401,-224.97 401,-202.93"/>
<polygon fill="none" stroke="#404040" points="401,-202.84 397,-196.84 401,-190.84 405,-196.84 401,-202.84"/>
<text text-anchor="middle" x="425.5" y="-216" font-family="Helvetica,sans-Serif" font-size="10.00"> +elements</text>
</g>
</g>
</svg>
