<?xml version="1.0" encoding="UTF-8" standalone="no"?>
<!DOCTYPE svg PUBLIC "-//W3C//DTD SVG 1.1//EN"
 "http://www.w3.org/Graphics/SVG/1.1/DTD/svg11.dtd">
<!-- Generated by graphviz version 7.0.3 (20221126.0506)
 -->
<!-- Title: Z:/home/lchinu/sbsgdg/Trabalho&#45;Pratico&#45;PDS&#45;II/include/conta.hpp Pages: 1 -->
<svg width="226pt" height="269pt"
 viewBox="0.00 0.00 226.36 269.00" xmlns="http://www.w3.org/2000/svg" xmlns:xlink="http://www.w3.org/1999/xlink">
<g id="graph0" class="graph" transform="scale(1 1) rotate(0) translate(4 265)">
<title>Z:/home/lchinu/sbsgdg/Trabalho&#45;Pratico&#45;PDS&#45;II/include/conta.hpp</title>
<!-- Node1 -->
<g id="node1" class="node">
<title>Node1</title>
<g id="a_node1"><a xlink:title="Classe responsável por realizar as operações selecionadas.">
<polygon fill="#999999" stroke="#666666" points="181.3,-261 66.3,-261 66.3,-220 181.3,-220 181.3,-261"/>
<text text-anchor="start" x="74.3" y="-249" font-family="Helvetica,sans-Serif" font-size="10.00">Z:/home/lchinu/sbsgdg</text>
<text text-anchor="start" x="74.3" y="-238" font-family="Helvetica,sans-Serif" font-size="10.00">/Trabalho&#45;Pratico&#45;PDS</text>
<text text-anchor="middle" x="123.8" y="-227" font-family="Helvetica,sans-Serif" font-size="10.00">&#45;II/include/conta.hpp</text>
</a>
</g>
</g>
<!-- Node2 -->
<g id="node2" class="node">
<title>Node2</title>
<g id="a_node2"><a xlink:title=" ">
<polygon fill="#e0e0e0" stroke="#999999" points="196.8,-19 142.8,-19 142.8,0 196.8,0 196.8,-19"/>
<text text-anchor="middle" x="169.8" y="-7" font-family="Helvetica,sans-Serif" font-size="10.00">iostream</text>
</a>
</g>
</g>
<!-- Node1&#45;&gt;Node2 -->
<g id="edge1" class="edge">
<title>Node1&#45;&gt;Node2</title>
<path fill="none" stroke="#63b8ff" d="M170.58,-219.68C185.19,-210.99 199.61,-199.24 207.8,-184 235.49,-132.52 201.34,-62.14 181.74,-29.09"/>
<polygon fill="#63b8ff" stroke="#63b8ff" points="184.79,-27.35 176.56,-20.68 178.83,-31.03 184.79,-27.35"/>
</g>
<!-- Node3 -->
<g id="node3" class="node">
<title>Node3</title>
<g id="a_node3"><a xlink:title=" ">
<polygon fill="#e0e0e0" stroke="#999999" points="48.3,-19 7.3,-19 7.3,0 48.3,0 48.3,-19"/>
<text text-anchor="middle" x="27.8" y="-7" font-family="Helvetica,sans-Serif" font-size="10.00">string</text>
</a>
</g>
</g>
<!-- Node1&#45;&gt;Node3 -->
<g id="edge2" class="edge">
<title>Node1&#45;&gt;Node3</title>
<path fill="none" stroke="#63b8ff" d="M66.02,-223.46C46.62,-215.01 27.06,-202.44 15.8,-184 -14.03,-135.13 6.92,-63.45 19.79,-29.58"/>
<polygon fill="#63b8ff" stroke="#63b8ff" points="22.88,-31.26 23.34,-20.68 16.38,-28.67 22.88,-31.26"/>
</g>
<!-- Node4 -->
<g id="node4" class="node">
<title>Node4</title>
<g id="a_node4"><a xlink:title=" ">
<polygon fill="#e0e0e0" stroke="#999999" points="144.8,-184 102.8,-184 102.8,-165 144.8,-165 144.8,-184"/>
<text text-anchor="middle" x="123.8" y="-172" font-family="Helvetica,sans-Serif" font-size="10.00">vector</text>
</a>
</g>
</g>
<!-- Node1&#45;&gt;Node4 -->
<g id="edge3" class="edge">
<title>Node1&#45;&gt;Node4</title>
<path fill="none" stroke="#63b8ff" d="M123.8,-219.6C123.8,-211.98 123.8,-203.3 123.8,-195.66"/>
<polygon fill="#63b8ff" stroke="#63b8ff" points="127.3,-195.68 123.8,-185.68 120.3,-195.68 127.3,-195.68"/>
</g>
<!-- Node5 -->
<g id="node5" class="node">
<title>Node5</title>
<g id="a_node5"><a xlink:title=" ">
<polygon fill="#e0e0e0" stroke="#999999" points="198.3,-184 163.3,-184 163.3,-165 198.3,-165 198.3,-184"/>
<text text-anchor="middle" x="180.8" y="-172" font-family="Helvetica,sans-Serif" font-size="10.00">map</text>
</a>
</g>
</g>
<!-- Node1&#45;&gt;Node5 -->
<g id="edge4" class="edge">
<title>Node1&#45;&gt;Node5</title>
<path fill="none" stroke="#63b8ff" d="M141.53,-219.6C149.22,-210.96 158.14,-200.95 165.53,-192.64"/>
<polygon fill="#63b8ff" stroke="#63b8ff" points="168.04,-195.09 172.08,-185.29 162.82,-190.43 168.04,-195.09"/>
</g>
<!-- Node6 -->
<g id="node6" class="node">
<title>Node6</title>
<g id="a_node6"><a xlink:href="titular_8hpp.html" target="_top" xlink:title="Classe que cria as contas titulares.">
<polygon fill="white" stroke="#666666" points="84.3,-184 25.3,-184 25.3,-165 84.3,-165 84.3,-184"/>
<text text-anchor="middle" x="54.8" y="-172" font-family="Helvetica,sans-Serif" font-size="10.00">titular.hpp</text>
</a>
</g>
</g>
<!-- Node1&#45;&gt;Node6 -->
<g id="edge5" class="edge">
<title>Node1&#45;&gt;Node6</title>
<path fill="none" stroke="#63b8ff" d="M102.35,-219.6C92.74,-210.68 81.54,-200.3 72.42,-191.84"/>
<polygon fill="#63b8ff" stroke="#63b8ff" points="74.96,-189.43 65.25,-185.19 70.2,-194.56 74.96,-189.43"/>
</g>
<!-- Node6&#45;&gt;Node2 -->
<g id="edge6" class="edge">
<title>Node6&#45;&gt;Node2</title>
<path fill="none" stroke="#63b8ff" d="M76.43,-164.65C92.41,-157.17 113.75,-145.11 127.8,-129 152.72,-100.44 163.16,-56.1 167.3,-30.53"/>
<polygon fill="#63b8ff" stroke="#63b8ff" points="170.73,-31.23 168.68,-20.84 163.8,-30.24 170.73,-31.23"/>
</g>
<!-- Node6&#45;&gt;Node3 -->
<g id="edge7" class="edge">
<title>Node6&#45;&gt;Node3</title>
<path fill="none" stroke="#63b8ff" d="M51.77,-164.74C48.81,-155.85 44.37,-141.62 41.8,-129 34.83,-94.74 30.96,-54.16 29.14,-30.47"/>
<polygon fill="#63b8ff" stroke="#63b8ff" points="32.65,-30.44 28.44,-20.71 25.67,-30.94 32.65,-30.44"/>
</g>
<!-- Node7 -->
<g id="node7" class="node">
<title>Node7</title>
<g id="a_node7"><a xlink:href="pessoa_8hpp.html" target="_top" xlink:title="Classe que cria a pessoa dona da conta.">
<polygon fill="white" stroke="#666666" points="118.3,-129 51.3,-129 51.3,-110 118.3,-110 118.3,-129"/>
<text text-anchor="middle" x="84.8" y="-117" font-family="Helvetica,sans-Serif" font-size="10.00">pessoa.hpp</text>
</a>
</g>
</g>
<!-- Node6&#45;&gt;Node7 -->
<g id="edge8" class="edge">
<title>Node6&#45;&gt;Node7</title>
<path fill="none" stroke="#63b8ff" d="M59.76,-164.75C63.64,-157.88 69.19,-148.08 74.08,-139.45"/>
<polygon fill="#63b8ff" stroke="#63b8ff" points="77.12,-141.19 79,-130.76 71.02,-137.74 77.12,-141.19"/>
</g>
<!-- Node7&#45;&gt;Node2 -->
<g id="edge9" class="edge">
<title>Node7&#45;&gt;Node2</title>
<path fill="none" stroke="#63b8ff" d="M95.69,-109.69C105.78,-101.21 120.84,-87.67 131.8,-74 142.99,-60.05 153.25,-42.49 160.28,-29.38"/>
<polygon fill="#63b8ff" stroke="#63b8ff" points="163.37,-31.03 164.87,-20.54 157.16,-27.8 163.37,-31.03"/>
</g>
<!-- Node7&#45;&gt;Node3 -->
<g id="edge10" class="edge">
<title>Node7&#45;&gt;Node3</title>
<path fill="none" stroke="#63b8ff" d="M80.14,-109.66C70.95,-92.26 50.34,-53.19 37.9,-29.62"/>
<polygon fill="#63b8ff" stroke="#63b8ff" points="41,-28.01 33.24,-20.8 34.81,-31.28 41,-28.01"/>
</g>
<!-- Node8 -->
<g id="node8" class="node">
<title>Node8</title>
<g id="a_node8"><a xlink:href="cpf_8hpp.html" target="_top" xlink:title="Classe que verifica a validade do CPF.">
<polygon fill="white" stroke="#666666" points="122.8,-74 74.8,-74 74.8,-55 122.8,-55 122.8,-74"/>
<text text-anchor="middle" x="98.8" y="-62" font-family="Helvetica,sans-Serif" font-size="10.00">cpf.hpp</text>
</a>
</g>
</g>
<!-- Node7&#45;&gt;Node8 -->
<g id="edge11" class="edge">
<title>Node7&#45;&gt;Node8</title>
<path fill="none" stroke="#63b8ff" d="M87.11,-109.75C88.87,-103.11 91.35,-93.73 93.57,-85.31"/>
<polygon fill="#63b8ff" stroke="#63b8ff" points="96.88,-86.47 96.05,-75.91 90.12,-84.68 96.88,-86.47"/>
</g>
<!-- Node8&#45;&gt;Node2 -->
<g id="edge13" class="edge">
<title>Node8&#45;&gt;Node2</title>
<path fill="none" stroke="#63b8ff" d="M110.85,-54.51C121.21,-46.77 136.4,-35.43 148.77,-26.2"/>
<polygon fill="#63b8ff" stroke="#63b8ff" points="150.8,-29.05 156.72,-20.26 146.62,-23.44 150.8,-29.05"/>
</g>
<!-- Node8&#45;&gt;Node3 -->
<g id="edge12" class="edge">
<title>Node8&#45;&gt;Node3</title>
<path fill="none" stroke="#63b8ff" d="M86.76,-54.51C76.39,-46.77 61.2,-35.43 48.83,-26.2"/>
<polygon fill="#63b8ff" stroke="#63b8ff" points="50.99,-23.44 40.88,-20.26 46.8,-29.05 50.99,-23.44"/>
</g>
</g>
</svg>
