<?xml version="1.0" encoding="UTF-8" standalone="no"?>
<!DOCTYPE svg PUBLIC "-//W3C//DTD SVG 1.1//EN"
 "http://www.w3.org/Graphics/SVG/1.1/DTD/svg11.dtd">
<!-- Generated by graphviz version 7.0.3 (20221126.0506)
 -->
<!-- Title: cpf.hpp Pages: 1 -->
<svg width="322pt" height="247pt"
 viewBox="0.00 0.00 322.00 247.00" xmlns="http://www.w3.org/2000/svg" xmlns:xlink="http://www.w3.org/1999/xlink">
<g id="graph0" class="graph" transform="scale(1 1) rotate(0) translate(4 243)">
<title>cpf.hpp</title>
<!-- Node1 -->
<g id="node1" class="node">
<title>Node1</title>
<g id="a_node1"><a xlink:title="Classe que verifica a validade do CPF.">
<polygon fill="#999999" stroke="#666666" points="156,-239 108,-239 108,-220 156,-220 156,-239"/>
<text text-anchor="middle" x="132" y="-227" font-family="Helvetica,sans-Serif" font-size="10.00">cpf.hpp</text>
</a>
</g>
</g>
<!-- Node2 -->
<g id="node2" class="node">
<title>Node2</title>
<g id="a_node2"><a xlink:href="pessoa_8hpp.html" target="_top" xlink:title="Classe que cria a pessoa dona da conta.">
<polygon fill="white" stroke="#666666" points="165.5,-184 98.5,-184 98.5,-165 165.5,-165 165.5,-184"/>
<text text-anchor="middle" x="132" y="-172" font-family="Helvetica,sans-Serif" font-size="10.00">pessoa.hpp</text>
</a>
</g>
</g>
<!-- Node1&#45;&gt;Node2 -->
<g id="edge1" class="edge">
<title>Node1&#45;&gt;Node2</title>
<path fill="none" stroke="#63b8ff" d="M132,-208.35C132,-200.1 132,-190.97 132,-184.44"/>
<polygon fill="#63b8ff" stroke="#63b8ff" points="128.5,-208.23 132,-218.23 135.5,-208.23 128.5,-208.23"/>
</g>
<!-- Node3 -->
<g id="node3" class="node">
<title>Node3</title>
<g id="a_node3"><a xlink:href="titular_8hpp.html" target="_top" xlink:title="Classe que cria as contas titulares.">
<polygon fill="white" stroke="#666666" points="161.5,-129 102.5,-129 102.5,-110 161.5,-110 161.5,-129"/>
<text text-anchor="middle" x="132" y="-117" font-family="Helvetica,sans-Serif" font-size="10.00">titular.hpp</text>
</a>
</g>
</g>
<!-- Node2&#45;&gt;Node3 -->
<g id="edge2" class="edge">
<title>Node2&#45;&gt;Node3</title>
<path fill="none" stroke="#63b8ff" d="M132,-153.35C132,-145.1 132,-135.97 132,-129.44"/>
<polygon fill="#63b8ff" stroke="#63b8ff" points="128.5,-153.23 132,-163.23 135.5,-153.23 128.5,-153.23"/>
</g>
<!-- Node4 -->
<g id="node4" class="node">
<title>Node4</title>
<g id="a_node4"><a xlink:href="conta_8hpp.html" target="_top" xlink:title="Classe responsável por realizar as operações selecionadas.">
<polygon fill="white" stroke="#666666" points="161.5,-74 102.5,-74 102.5,-55 161.5,-55 161.5,-74"/>
<text text-anchor="middle" x="132" y="-62" font-family="Helvetica,sans-Serif" font-size="10.00">conta.hpp</text>
</a>
</g>
</g>
<!-- Node3&#45;&gt;Node4 -->
<g id="edge3" class="edge">
<title>Node3&#45;&gt;Node4</title>
<path fill="none" stroke="#63b8ff" d="M132,-98.35C132,-90.1 132,-80.97 132,-74.44"/>
<polygon fill="#63b8ff" stroke="#63b8ff" points="128.5,-98.23 132,-108.23 135.5,-98.23 128.5,-98.23"/>
</g>
<!-- Node5 -->
<g id="node5" class="node">
<title>Node5</title>
<g id="a_node5"><a xlink:href="banco_8hpp.html" target="_top" xlink:title="Classe principal do projeto caixa eletrônico.">
<polygon fill="white" stroke="#666666" points="62,-19 0,-19 0,0 62,0 62,-19"/>
<text text-anchor="middle" x="31" y="-7" font-family="Helvetica,sans-Serif" font-size="10.00">banco.hpp</text>
</a>
</g>
</g>
<!-- Node4&#45;&gt;Node5 -->
<g id="edge4" class="edge">
<title>Node4&#45;&gt;Node5</title>
<path fill="none" stroke="#63b8ff" d="M104.88,-49.27C86.73,-39.74 63.42,-27.51 47.88,-19.36"/>
<polygon fill="#63b8ff" stroke="#63b8ff" points="103.05,-52.26 113.53,-53.81 106.3,-46.06 103.05,-52.26"/>
</g>
<!-- Node6 -->
<g id="node6" class="node">
<title>Node6</title>
<g id="a_node6"><a xlink:href="conta_poupanca_8hpp.html" target="_top" xlink:title="Classe que cria conta do tipo poupança.">
<polygon fill="white" stroke="#666666" points="183.5,-19 80.5,-19 80.5,0 183.5,0 183.5,-19"/>
<text text-anchor="middle" x="132" y="-7" font-family="Helvetica,sans-Serif" font-size="10.00">contaPoupanca.hpp</text>
</a>
</g>
</g>
<!-- Node4&#45;&gt;Node6 -->
<g id="edge5" class="edge">
<title>Node4&#45;&gt;Node6</title>
<path fill="none" stroke="#63b8ff" d="M132,-43.35C132,-35.1 132,-25.97 132,-19.44"/>
<polygon fill="#63b8ff" stroke="#63b8ff" points="128.5,-43.23 132,-53.23 135.5,-43.23 128.5,-43.23"/>
</g>
<!-- Node7 -->
<g id="node7" class="node">
<title>Node7</title>
<g id="a_node7"><a xlink:href="conta_universitaria_8hpp.html" target="_top" xlink:title="Classe que cria conta do tipo universitária.">
<polygon fill="white" stroke="#666666" points="314,-19 202,-19 202,0 314,0 314,-19"/>
<text text-anchor="middle" x="258" y="-7" font-family="Helvetica,sans-Serif" font-size="10.00">contaUniversitaria.hpp</text>
</a>
</g>
</g>
<!-- Node4&#45;&gt;Node7 -->
<g id="edge6" class="edge">
<title>Node4&#45;&gt;Node7</title>
<path fill="none" stroke="#63b8ff" d="M163.95,-50.06C186.84,-40.43 217.02,-27.74 236.94,-19.36"/>
<polygon fill="#63b8ff" stroke="#63b8ff" points="162.63,-46.82 154.77,-53.92 165.34,-53.27 162.63,-46.82"/>
</g>
</g>
</svg>
