<?xml version="1.0" encoding="UTF-8" standalone="no"?>
<!DOCTYPE svg PUBLIC "-//W3C//DTD SVG 1.1//EN"
 "http://www.w3.org/Graphics/SVG/1.1/DTD/svg11.dtd">
<!-- Generated by graphviz version 7.0.3 (20221126.0506)
 -->
<!-- Title: Z:/home/lchinu/sbsgdg/Trabalho&#45;Pratico&#45;PDS&#45;II/src/cpf.cpp Pages: 1 -->
<svg width="126pt" height="159pt"
 viewBox="0.00 0.00 125.50 159.00" xmlns="http://www.w3.org/2000/svg" xmlns:xlink="http://www.w3.org/1999/xlink">
<g id="graph0" class="graph" transform="scale(1 1) rotate(0) translate(4 155)">
<title>Z:/home/lchinu/sbsgdg/Trabalho&#45;Pratico&#45;PDS&#45;II/src/cpf.cpp</title>
<!-- Node1 -->
<g id="node1" class="node">
<title>Node1</title>
<g id="a_node1"><a xlink:title=" ">
<polygon fill="#999999" stroke="#666666" points="115,-151 0,-151 0,-110 115,-110 115,-151"/>
<text text-anchor="start" x="8" y="-139" font-family="Helvetica,sans-Serif" font-size="10.00">Z:/home/lchinu/sbsgdg</text>
<text text-anchor="start" x="8" y="-128" font-family="Helvetica,sans-Serif" font-size="10.00">/Trabalho&#45;Pratico&#45;PDS</text>
<text text-anchor="middle" x="57.5" y="-117" font-family="Helvetica,sans-Serif" font-size="10.00">&#45;II/src/cpf.cpp</text>
</a>
</g>
</g>
<!-- Node2 -->
<g id="node2" class="node">
<title>Node2</title>
<g id="a_node2"><a xlink:href="cpf_8hpp.html" target="_top" xlink:title="Classe que verifica a validade do CPF.">
<polygon fill="white" stroke="#666666" points="81.5,-74 33.5,-74 33.5,-55 81.5,-55 81.5,-74"/>
<text text-anchor="middle" x="57.5" y="-62" font-family="Helvetica,sans-Serif" font-size="10.00">cpf.hpp</text>
</a>
</g>
</g>
<!-- Node1&#45;&gt;Node2 -->
<g id="edge1" class="edge">
<title>Node1&#45;&gt;Node2</title>
<path fill="none" stroke="#63b8ff" d="M57.5,-109.6C57.5,-101.98 57.5,-93.3 57.5,-85.66"/>
<polygon fill="#63b8ff" stroke="#63b8ff" points="61,-85.68 57.5,-75.68 54,-85.68 61,-85.68"/>
</g>
<!-- Node3 -->
<g id="node3" class="node">
<title>Node3</title>
<g id="a_node3"><a xlink:title=" ">
<polygon fill="#e0e0e0" stroke="#999999" points="45,-19 4,-19 4,0 45,0 45,-19"/>
<text text-anchor="middle" x="24.5" y="-7" font-family="Helvetica,sans-Serif" font-size="10.00">string</text>
</a>
</g>
</g>
<!-- Node2&#45;&gt;Node3 -->
<g id="edge2" class="edge">
<title>Node2&#45;&gt;Node3</title>
<path fill="none" stroke="#63b8ff" d="M52.05,-54.75C47.73,-47.81 41.54,-37.86 36.12,-29.16"/>
<polygon fill="#63b8ff" stroke="#63b8ff" points="39.12,-27.37 30.87,-20.73 33.18,-31.07 39.12,-27.37"/>
</g>
<!-- Node4 -->
<g id="node4" class="node">
<title>Node4</title>
<g id="a_node4"><a xlink:title=" ">
<polygon fill="#e0e0e0" stroke="#999999" points="117.5,-19 63.5,-19 63.5,0 117.5,0 117.5,-19"/>
<text text-anchor="middle" x="90.5" y="-7" font-family="Helvetica,sans-Serif" font-size="10.00">iostream</text>
</a>
</g>
</g>
<!-- Node2&#45;&gt;Node4 -->
<g id="edge3" class="edge">
<title>Node2&#45;&gt;Node4</title>
<path fill="none" stroke="#63b8ff" d="M62.95,-54.75C67.27,-47.81 73.46,-37.86 78.88,-29.16"/>
<polygon fill="#63b8ff" stroke="#63b8ff" points="81.82,-31.07 84.13,-20.73 75.88,-27.37 81.82,-31.07"/>
</g>
</g>
</svg>
