<?xml version="1.0" encoding="UTF-8" standalone="no"?>
<!DOCTYPE svg PUBLIC "-//W3C//DTD SVG 1.1//EN"
 "http://www.w3.org/Graphics/SVG/1.1/DTD/svg11.dtd">
<!-- Generated by graphviz version 7.0.3 (20221126.0506)
 -->
<!-- Title: Representação gráfica da hiearquia da classe Pages: 1 -->
<svg width="235pt" height="138pt"
 viewBox="0.00 0.00 235.00 138.00" xmlns="http://www.w3.org/2000/svg" xmlns:xlink="http://www.w3.org/1999/xlink">
<g id="graph0" class="graph" transform="scale(1 1) rotate(0) translate(4 134)">
<title>Representação gráfica da hiearquia da classe</title>
<!-- Node0 -->
<g id="node1" class="node">
<title>Node0</title>
<g id="a_node1"><a xlink:title=" ">
<polygon fill="#e0e0e0" stroke="#999999" points="78,-74 0,-74 0,-55 78,-55 78,-74"/>
<text text-anchor="middle" x="39" y="-62" font-family="Helvetica,sans-Serif" font-size="10.00">std::exception</text>
</a>
</g>
</g>
<!-- Node1 -->
<g id="node2" class="node">
<title>Node1</title>
<g id="a_node2"><a xlink:href="class_excecao_cpf.html" target="_top" xlink:title="Classe que lança o erro em caso de cpf inválido.">
<polygon fill="white" stroke="#666666" points="205,-130 136,-130 136,-111 205,-111 205,-130"/>
<text text-anchor="middle" x="170.5" y="-118" font-family="Helvetica,sans-Serif" font-size="10.00">ExcecaoCpf</text>
</a>
</g>
</g>
<!-- Node0&#45;&gt;Node1 -->
<g id="edge1" class="edge">
<title>Node0&#45;&gt;Node1</title>
<path fill="none" stroke="#63b8ff" d="M67.08,-79.73C80.87,-87.15 98.06,-95.87 114,-102.5 120.92,-105.38 128.48,-108.1 135.73,-110.51"/>
<polygon fill="#63b8ff" stroke="#63b8ff" points="69.05,-76.82 58.59,-75.1 65.69,-82.96 69.05,-76.82"/>
</g>
<!-- Node2 -->
<g id="node3" class="node">
<title>Node2</title>
<g id="a_node3"><a xlink:href="class_excecao_negativo.html" target="_top" xlink:title="Classe responsável por captar o erro de saque com valores negativos.">
<polygon fill="white" stroke="#666666" points="216.5,-93 124.5,-93 124.5,-74 216.5,-74 216.5,-93"/>
<text text-anchor="middle" x="170.5" y="-81" font-family="Helvetica,sans-Serif" font-size="10.00">ExcecaoNegativo</text>
</a>
</g>
</g>
<!-- Node0&#45;&gt;Node2 -->
<g id="edge2" class="edge">
<title>Node0&#45;&gt;Node2</title>
<path fill="none" stroke="#63b8ff" d="M89.35,-71.74C100.84,-73.43 113.01,-75.21 124.31,-76.87"/>
<polygon fill="#63b8ff" stroke="#63b8ff" points="90.05,-68.31 79.65,-70.32 89.04,-75.23 90.05,-68.31"/>
</g>
<!-- Node3 -->
<g id="node4" class="node">
<title>Node3</title>
<g id="a_node4"><a xlink:href="class_excecao_saque.html" target="_top" xlink:title="Classe responsável por captar o erro de saque com saldo indisponível.">
<polygon fill="white" stroke="#666666" points="212,-56 129,-56 129,-37 212,-37 212,-56"/>
<text text-anchor="middle" x="170.5" y="-44" font-family="Helvetica,sans-Serif" font-size="10.00">ExcecaoSaque</text>
</a>
</g>
</g>
<!-- Node0&#45;&gt;Node3 -->
<g id="edge3" class="edge">
<title>Node0&#45;&gt;Node3</title>
<path fill="none" stroke="#63b8ff" d="M89.35,-57.64C102.42,-55.82 116.37,-53.88 128.91,-52.14"/>
<polygon fill="#63b8ff" stroke="#63b8ff" points="89.08,-54.14 79.65,-58.99 90.04,-61.08 89.08,-54.14"/>
</g>
<!-- Node4 -->
<g id="node5" class="node">
<title>Node4</title>
<g id="a_node5"><a xlink:href="class_excecao_transferencia.html" target="_top" xlink:title="Classe que lança a exceção da transferência.">
<polygon fill="white" stroke="#666666" points="227,-19 114,-19 114,0 227,0 227,-19"/>
<text text-anchor="middle" x="170.5" y="-7" font-family="Helvetica,sans-Serif" font-size="10.00">ExcecaoTransferencia</text>
</a>
</g>
</g>
<!-- Node0&#45;&gt;Node4 -->
<g id="edge4" class="edge">
<title>Node0&#45;&gt;Node4</title>
<path fill="none" stroke="#63b8ff" d="M69,-49.37C82.5,-42.59 98.89,-34.73 114,-28.5 121.72,-25.31 130.19,-22.22 138.13,-19.49"/>
<polygon fill="#63b8ff" stroke="#63b8ff" points="67.55,-46.18 60.22,-53.83 70.72,-52.42 67.55,-46.18"/>
</g>
</g>
</svg>
