<?xml version="1.0" encoding="UTF-8" standalone="no"?>
<!DOCTYPE svg PUBLIC "-//W3C//DTD SVG 1.1//EN"
 "http://www.w3.org/Graphics/SVG/1.1/DTD/svg11.dtd">
<!-- Generated by graphviz version 7.0.3 (20221126.0506)
 -->
<!-- Title: Representação gráfica da hiearquia da classe Pages: 1 -->
<svg width="181pt" height="64pt"
 viewBox="0.00 0.00 181.00 64.00" xmlns="http://www.w3.org/2000/svg" xmlns:xlink="http://www.w3.org/1999/xlink">
<g id="graph0" class="graph" transform="scale(1 1) rotate(0) translate(4 60)">
<title>Representação gráfica da hiearquia da classe</title>
<!-- Node0 -->
<g id="node1" class="node">
<title>Node0</title>
<g id="a_node1"><a xlink:href="class_conta.html" target="_top" xlink:title="Classe que direciona as operações criadas na classe banco.">
<polygon fill="white" stroke="#666666" points="42,-37 0,-37 0,-18 42,-18 42,-37"/>
<text text-anchor="middle" x="21" y="-25" font-family="Helvetica,sans-Serif" font-size="10.00">Conta</text>
</a>
</g>
</g>
<!-- Node1 -->
<g id="node2" class="node">
<title>Node1</title>
<g id="a_node2"><a xlink:href="class_conta_poupanca.html" target="_top" xlink:title="Classe respnsável por linkar uma conta ao tipo poupança.">
<polygon fill="white" stroke="#666666" points="168.5,-56 82.5,-56 82.5,-37 168.5,-37 168.5,-56"/>
<text text-anchor="middle" x="125.5" y="-44" font-family="Helvetica,sans-Serif" font-size="10.00">ContaPoupanca</text>
</a>
</g>
</g>
<!-- Node0&#45;&gt;Node1 -->
<g id="edge1" class="edge">
<title>Node0&#45;&gt;Node1</title>
<path fill="none" stroke="#63b8ff" d="M53.5,-33.34C62.58,-35.02 72.63,-36.89 82.25,-38.67"/>
<polygon fill="#63b8ff" stroke="#63b8ff" points="54.21,-29.91 43.74,-31.53 52.93,-36.79 54.21,-29.91"/>
</g>
<!-- Node2 -->
<g id="node3" class="node">
<title>Node2</title>
<g id="a_node3"><a xlink:href="class_conta_universitaria.html" target="_top" xlink:title="Classe respnsável por linkar uma conta ao tipo universitária.">
<polygon fill="white" stroke="#666666" points="173,-19 78,-19 78,0 173,0 173,-19"/>
<text text-anchor="middle" x="125.5" y="-7" font-family="Helvetica,sans-Serif" font-size="10.00">ContaUniversitaria</text>
</a>
</g>
</g>
<!-- Node0&#45;&gt;Node2 -->
<g id="edge2" class="edge">
<title>Node0&#45;&gt;Node2</title>
<path fill="none" stroke="#63b8ff" d="M53.52,-21.96C61.13,-20.63 69.42,-19.17 77.56,-17.74"/>
<polygon fill="#63b8ff" stroke="#63b8ff" points="52.99,-18.51 43.74,-23.68 54.2,-25.4 52.99,-18.51"/>
</g>
</g>
</svg>
