<?xml version="1.0" encoding="UTF-8" standalone="no"?>
<!DOCTYPE svg PUBLIC "-//W3C//DTD SVG 1.1//EN"
 "http://www.w3.org/Graphics/SVG/1.1/DTD/svg11.dtd">
<!-- Generated by graphviz version 7.0.3 (20221126.0506)
 -->
<!-- Title: main Pages: 1 -->
<svg width="507pt" height="325pt"
 viewBox="0.00 0.00 507.00 325.00" xmlns="http://www.w3.org/2000/svg" xmlns:xlink="http://www.w3.org/1999/xlink">
<g id="graph0" class="graph" transform="scale(1 1) rotate(0) translate(4 321)">
<title>main</title>
<!-- Node1 -->
<g id="node1" class="node">
<title>Node1</title>
<g id="a_node1"><a xlink:title=" ">
<polygon fill="#999999" stroke="#666666" points="38,-206 0,-206 0,-187 38,-187 38,-206"/>
<text text-anchor="middle" x="19" y="-194" font-family="Helvetica,sans-Serif" font-size="10.00">main</text>
</a>
</g>
</g>
<!-- Node2 -->
<g id="node2" class="node">
<title>Node2</title>
<g id="a_node2"><a xlink:href="class_banco.html#a34888556a93812b8b0732f4232e2ef8e" target="_top" xlink:title="Adiciona conta criada ao banco, por referência.">
<polygon fill="white" stroke="#666666" points="190.5,-280 78.5,-280 78.5,-261 190.5,-261 190.5,-280"/>
<text text-anchor="middle" x="134.5" y="-268" font-family="Helvetica,sans-Serif" font-size="10.00">Banco::adicionaConta</text>
</a>
</g>
</g>
<!-- Node1&#45;&gt;Node2 -->
<g id="edge1" class="edge">
<title>Node1&#45;&gt;Node2</title>
<path fill="none" stroke="#63b8ff" d="M33.58,-206.45C44.39,-214.27 59.99,-225.35 74,-234.5 84.54,-241.38 96.36,-248.63 106.67,-254.8"/>
<polygon fill="#63b8ff" stroke="#63b8ff" points="104.69,-257.7 115.08,-259.79 108.27,-251.68 104.69,-257.7"/>
</g>
<!-- Node5 -->
<g id="node5" class="node">
<title>Node5</title>
<g id="a_node5"><a xlink:href="class_banco.html#ad2852d114da0b20eb31e044266e38967" target="_top" xlink:title="Criação do sistema de login.">
<polygon fill="white" stroke="#666666" points="170,-225 99,-225 99,-206 170,-206 170,-225"/>
<text text-anchor="middle" x="134.5" y="-213" font-family="Helvetica,sans-Serif" font-size="10.00">Banco::login</text>
</a>
</g>
</g>
<!-- Node1&#45;&gt;Node5 -->
<g id="edge4" class="edge">
<title>Node1&#45;&gt;Node5</title>
<path fill="none" stroke="#63b8ff" d="M38.49,-199.59C51.78,-201.82 70.32,-204.92 87.5,-207.8"/>
<polygon fill="#63b8ff" stroke="#63b8ff" points="86.58,-211.19 97.02,-209.39 87.74,-204.29 86.58,-211.19"/>
</g>
<!-- Node7 -->
<g id="node7" class="node">
<title>Node7</title>
<g id="a_node7"><a xlink:href="class_banco.html#a3adbe7c18cf6266f26cd5894bacb8490" target="_top" xlink:title="após selecionada a opção desejada, o caixa realiza a operação">
<polygon fill="white" stroke="#666666" points="195,-169 74,-169 74,-150 195,-150 195,-169"/>
<text text-anchor="middle" x="134.5" y="-157" font-family="Helvetica,sans-Serif" font-size="10.00">Banco::realizaOperacao</text>
</a>
</g>
</g>
<!-- Node1&#45;&gt;Node7 -->
<g id="edge6" class="edge">
<title>Node1&#45;&gt;Node7</title>
<path fill="none" stroke="#63b8ff" d="M38.49,-190.47C53.02,-185.74 73.81,-178.96 92.24,-172.95"/>
<polygon fill="#63b8ff" stroke="#63b8ff" points="93.18,-176.32 101.61,-169.9 91.01,-169.67 93.18,-176.32"/>
</g>
<!-- Node14 -->
<g id="node14" class="node">
<title>Node14</title>
<g id="a_node14"><a xlink:href="class_banco.html#a6ca00f185c77fbd74935f5a6c0a07c27" target="_top" xlink:title="O usuario logado escolhe a operacao que será realzada no caixa eletrônico.">
<polygon fill="white" stroke="#666666" points="365,-19 231,-19 231,0 365,0 365,-19"/>
<text text-anchor="middle" x="298" y="-7" font-family="Helvetica,sans-Serif" font-size="10.00">Banco::selecionaOperacao</text>
</a>
</g>
</g>
<!-- Node1&#45;&gt;Node14 -->
<g id="edge17" class="edge">
<title>Node1&#45;&gt;Node14</title>
<path fill="none" stroke="#63b8ff" d="M28.72,-186.67C39.04,-175.28 56.97,-156.18 74,-141.5 139.32,-85.21 153.25,-64.79 231,-27.5 234.27,-25.93 237.69,-24.49 241.19,-23.15"/>
<polygon fill="#63b8ff" stroke="#63b8ff" points="242.09,-26.54 250.4,-19.96 239.8,-19.93 242.09,-26.54"/>
</g>
<!-- Node3 -->
<g id="node3" class="node">
<title>Node3</title>
<g id="a_node3"><a xlink:href="class_conta.html#ad2edd6afe6af8b7d0705a5cbb28640e1" target="_top" xlink:title="Busca o titular da conta logada.">
<polygon fill="white" stroke="#666666" points="343.5,-280 252.5,-280 252.5,-261 343.5,-261 343.5,-280"/>
<text text-anchor="middle" x="298" y="-268" font-family="Helvetica,sans-Serif" font-size="10.00">Conta::get_titular</text>
</a>
</g>
</g>
<!-- Node2&#45;&gt;Node3 -->
<g id="edge2" class="edge">
<title>Node2&#45;&gt;Node3</title>
<path fill="none" stroke="#63b8ff" d="M190.63,-270.5C206.73,-270.5 224.35,-270.5 240.54,-270.5"/>
<polygon fill="#63b8ff" stroke="#63b8ff" points="240.51,-274 250.51,-270.5 240.51,-267 240.51,-274"/>
</g>
<!-- Node4 -->
<g id="node4" class="node">
<title>Node4</title>
<g id="a_node4"><a xlink:href="class_titular.html#abf98b5451eb5d30a49324d510df17f35" target="_top" xlink:title="Definido o usuário titular da conta.">
<polygon fill="white" stroke="#666666" points="347.5,-317 248.5,-317 248.5,-298 347.5,-298 347.5,-317"/>
<text text-anchor="middle" x="298" y="-305" font-family="Helvetica,sans-Serif" font-size="10.00">Titular::get_usuario</text>
</a>
</g>
</g>
<!-- Node2&#45;&gt;Node4 -->
<g id="edge3" class="edge">
<title>Node2&#45;&gt;Node4</title>
<path fill="none" stroke="#63b8ff" d="M178.78,-280.42C198.33,-284.89 221.65,-290.24 242.39,-294.99"/>
<polygon fill="#63b8ff" stroke="#63b8ff" points="241.6,-298.4 252.13,-297.22 243.16,-291.57 241.6,-298.4"/>
</g>
<!-- Node6 -->
<g id="node6" class="node">
<title>Node6</title>
<g id="a_node6"><a xlink:href="banco_8cpp.html#a11dd74a42724806dfa32ad2635eb42da" target="_top" xlink:title=" ">
<polygon fill="white" stroke="#666666" points="319.5,-243 276.5,-243 276.5,-224 319.5,-224 319.5,-243"/>
<text text-anchor="middle" x="298" y="-231" font-family="Helvetica,sans-Serif" font-size="10.00">existe</text>
</a>
</g>
</g>
<!-- Node5&#45;&gt;Node6 -->
<g id="edge5" class="edge">
<title>Node5&#45;&gt;Node6</title>
<path fill="none" stroke="#63b8ff" d="M170.15,-219.36C198.24,-222.49 237.54,-226.87 264.92,-229.92"/>
<polygon fill="#63b8ff" stroke="#63b8ff" points="264.39,-233.39 274.72,-231.02 265.16,-226.43 264.39,-233.39"/>
</g>
<!-- Node7&#45;&gt;Node3 -->
<g id="edge9" class="edge">
<title>Node7&#45;&gt;Node3</title>
<path fill="none" stroke="#63b8ff" d="M155.48,-169.45C167.8,-176.23 183.41,-186.04 195,-197.5 215.77,-218.04 207.37,-235.32 231,-252.5 234.22,-254.84 237.73,-256.88 241.39,-258.65"/>
<polygon fill="#63b8ff" stroke="#63b8ff" points="240.05,-261.88 250.63,-262.4 242.68,-255.4 240.05,-261.88"/>
</g>
<!-- Node7&#45;&gt;Node6 -->
<g id="edge7" class="edge">
<title>Node7&#45;&gt;Node6</title>
<path fill="none" stroke="#63b8ff" d="M151.16,-169.37C173.87,-183.55 214.97,-208.75 231,-215.5 241.81,-220.05 254.09,-223.76 265.11,-226.61"/>
<polygon fill="#63b8ff" stroke="#63b8ff" points="264,-229.95 274.55,-228.91 265.66,-223.15 264,-229.95"/>
</g>
<!-- Node8 -->
<g id="node8" class="node">
<title>Node8</title>
<g id="a_node8"><a xlink:href="class_pessoa.html#a34b68331ab3c85806eb1d98c3203a359" target="_top" xlink:title="É definido para o objeto pessoa um nome.">
<polygon fill="white" stroke="#666666" points="499,-150 401,-150 401,-131 499,-131 499,-150"/>
<text text-anchor="middle" x="450" y="-138" font-family="Helvetica,sans-Serif" font-size="10.00">Pessoa::get_nome</text>
</a>
</g>
</g>
<!-- Node7&#45;&gt;Node8 -->
<g id="edge8" class="edge">
<title>Node7&#45;&gt;Node8</title>
<path fill="none" stroke="#63b8ff" d="M179,-149.58C195.23,-146.33 213.87,-143.14 231,-141.5 284.43,-136.38 345.57,-136.63 389.48,-137.87"/>
<polygon fill="#63b8ff" stroke="#63b8ff" points="389.2,-141.36 399.3,-138.17 389.42,-134.36 389.2,-141.36"/>
</g>
<!-- Node9 -->
<g id="node9" class="node">
<title>Node9</title>
<g id="a_node9"><a xlink:href="class_banco.html#a817aa470fa98f4de994754e48c5d22f7" target="_top" xlink:title="Responsável por reunir todas as transações feitas.">
<polygon fill="white" stroke="#666666" points="356,-56 240,-56 240,-37 356,-37 356,-56"/>
<text text-anchor="middle" x="298" y="-44" font-family="Helvetica,sans-Serif" font-size="10.00">Banco::imprimeExtrato</text>
</a>
</g>
</g>
<!-- Node7&#45;&gt;Node9 -->
<g id="edge10" class="edge">
<title>Node7&#45;&gt;Node9</title>
<path fill="none" stroke="#63b8ff" d="M142.46,-149.78C156.78,-130.5 191.53,-87.34 231,-64.5 233.34,-63.15 235.79,-61.89 238.31,-60.72"/>
<polygon fill="#63b8ff" stroke="#63b8ff" points="239.57,-63.99 247.54,-57 236.95,-57.5 239.57,-63.99"/>
</g>
<!-- Node10 -->
<g id="node10" class="node">
<title>Node10</title>
<g id="a_node10"><a xlink:href="class_conta.html#a7b8dad223628472f3453e768d92c4ad9" target="_top" xlink:title="Imprime o saldo atual da conta.">
<polygon fill="white" stroke="#666666" points="351.5,-169 244.5,-169 244.5,-150 351.5,-150 351.5,-169"/>
<text text-anchor="middle" x="298" y="-157" font-family="Helvetica,sans-Serif" font-size="10.00">Conta::imprimeSaldo</text>
</a>
</g>
</g>
<!-- Node7&#45;&gt;Node10 -->
<g id="edge11" class="edge">
<title>Node7&#45;&gt;Node10</title>
<path fill="none" stroke="#63b8ff" d="M195.18,-159.5C207.49,-159.5 220.51,-159.5 232.97,-159.5"/>
<polygon fill="#63b8ff" stroke="#63b8ff" points="232.71,-163 242.71,-159.5 232.71,-156 232.71,-163"/>
</g>
<!-- Node11 -->
<g id="node11" class="node">
<title>Node11</title>
<g id="a_node11"><a xlink:href="class_conta.html#ac3b987361e0938ce39bcb37097f2293f" target="_top" xlink:title="Realiza um saque da conta logada.">
<polygon fill="white" stroke="#666666" points="355.5,-206 240.5,-206 240.5,-187 355.5,-187 355.5,-206"/>
<text text-anchor="middle" x="298" y="-194" font-family="Helvetica,sans-Serif" font-size="10.00">Conta::realizaDeposito</text>
</a>
</g>
</g>
<!-- Node7&#45;&gt;Node11 -->
<g id="edge13" class="edge">
<title>Node7&#45;&gt;Node11</title>
<path fill="none" stroke="#63b8ff" d="M178.78,-169.42C198.33,-173.89 221.65,-179.24 242.39,-183.99"/>
<polygon fill="#63b8ff" stroke="#63b8ff" points="241.6,-187.4 252.13,-186.22 243.16,-180.57 241.6,-187.4"/>
</g>
<!-- Node12 -->
<g id="node12" class="node">
<title>Node12</title>
<g id="a_node12"><a xlink:href="class_conta.html#a82c23c19eb795d3a5902d9c6c91737e5" target="_top" xlink:title="Realiza um saque da conta logada.">
<polygon fill="white" stroke="#666666" points="350,-93 246,-93 246,-74 350,-74 350,-93"/>
<text text-anchor="middle" x="298" y="-81" font-family="Helvetica,sans-Serif" font-size="10.00">Conta::realizaSaque</text>
</a>
</g>
</g>
<!-- Node7&#45;&gt;Node12 -->
<g id="edge14" class="edge">
<title>Node7&#45;&gt;Node12</title>
<path fill="none" stroke="#63b8ff" d="M152.02,-149.52C170.76,-138.42 202.43,-120.38 231,-107.5 238.96,-103.91 247.63,-100.45 255.99,-97.33"/>
<polygon fill="#63b8ff" stroke="#63b8ff" points="257.09,-100.65 265.3,-93.95 254.71,-94.07 257.09,-100.65"/>
</g>
<!-- Node7&#45;&gt;Node14 -->
<g id="edge16" class="edge">
<title>Node7&#45;&gt;Node14</title>
<path fill="none" stroke="#63b8ff" d="M142.94,-149.73C154.31,-134.73 176.63,-105.09 195,-79.5 211.39,-56.66 208.05,-43.74 231,-27.5 232.57,-26.39 234.2,-25.35 235.88,-24.38"/>
<polygon fill="#63b8ff" stroke="#63b8ff" points="237.15,-27.65 244.61,-20.12 234.09,-21.36 237.15,-27.65"/>
</g>
<!-- Node10&#45;&gt;Node8 -->
<g id="edge12" class="edge">
<title>Node10&#45;&gt;Node8</title>
<path fill="none" stroke="#63b8ff" d="M351.88,-152.8C364.03,-151.26 377.02,-149.62 389.42,-148.05"/>
<polygon fill="#63b8ff" stroke="#63b8ff" points="389.62,-151.55 399.1,-146.82 388.74,-144.61 389.62,-151.55"/>
</g>
<!-- Node13 -->
<g id="node13" class="node">
<title>Node13</title>
<g id="a_node13"><a xlink:href="class_conta.html#a3c4eb6c5bc2f231841ea4f497211142a" target="_top" xlink:title="Define a taxa a conta logada deve pagar para sacar.">
<polygon fill="white" stroke="#666666" points="497.5,-93 402.5,-93 402.5,-74 497.5,-74 497.5,-93"/>
<text text-anchor="middle" x="450" y="-81" font-family="Helvetica,sans-Serif" font-size="10.00">Conta::taxaSaque</text>
</a>
</g>
</g>
<!-- Node12&#45;&gt;Node13 -->
<g id="edge15" class="edge">
<title>Node12&#45;&gt;Node13</title>
<path fill="none" stroke="#63b8ff" d="M350.2,-83.5C363.2,-83.5 377.26,-83.5 390.59,-83.5"/>
<polygon fill="#63b8ff" stroke="#63b8ff" points="390.55,-87 400.55,-83.5 390.55,-80 390.55,-87"/>
</g>
</g>
</svg>
