<?xml version="1.0" encoding="UTF-8" standalone="no"?>
<!DOCTYPE svg PUBLIC "-//W3C//DTD SVG 1.1//EN"
 "http://www.w3.org/Graphics/SVG/1.1/DTD/svg11.dtd">
<!-- Generated by graphviz version 7.0.3 (20221126.0506)
 -->
<!-- Title: Z:/home/lchinu/sbsgdg/Trabalho&#45;Pratico&#45;PDS&#45;II/include/pessoa.hpp Pages: 1 -->
<svg width="131pt" height="159pt"
 viewBox="0.00 0.00 130.50 159.00" xmlns="http://www.w3.org/2000/svg" xmlns:xlink="http://www.w3.org/1999/xlink">
<g id="graph0" class="graph" transform="scale(1 1) rotate(0) translate(4 155)">
<title>Z:/home/lchinu/sbsgdg/Trabalho&#45;Pratico&#45;PDS&#45;II/include/pessoa.hpp</title>
<!-- Node1 -->
<g id="node1" class="node">
<title>Node1</title>
<g id="a_node1"><a xlink:title="Classe que cria a pessoa dona da conta.">
<polygon fill="#999999" stroke="#666666" points="117.5,-151 2.5,-151 2.5,-110 117.5,-110 117.5,-151"/>
<text text-anchor="start" x="10.5" y="-139" font-family="Helvetica,sans-Serif" font-size="10.00">Z:/home/lchinu/sbsgdg</text>
<text text-anchor="start" x="10.5" y="-128" font-family="Helvetica,sans-Serif" font-size="10.00">/Trabalho&#45;Pratico&#45;PDS</text>
<text text-anchor="middle" x="60" y="-117" font-family="Helvetica,sans-Serif" font-size="10.00">&#45;II/include/pessoa.hpp</text>
</a>
</g>
</g>
<!-- Node2 -->
<g id="node2" class="node">
<title>Node2</title>
<g id="a_node2"><a xlink:title=" ">
<polygon fill="#e0e0e0" stroke="#999999" points="54,-19 0,-19 0,0 54,0 54,-19"/>
<text text-anchor="middle" x="27" y="-7" font-family="Helvetica,sans-Serif" font-size="10.00">iostream</text>
</a>
</g>
</g>
<!-- Node1&#45;&gt;Node2 -->
<g id="edge1" class="edge">
<title>Node1&#45;&gt;Node2</title>
<path fill="none" stroke="#63b8ff" d="M44.63,-109.62C37.79,-99.54 30.51,-86.75 27,-74 23.1,-59.81 23.27,-43.15 24.32,-30.46"/>
<polygon fill="#63b8ff" stroke="#63b8ff" points="27.77,-31.15 25.39,-20.83 20.81,-30.38 27.77,-31.15"/>
</g>
<!-- Node3 -->
<g id="node3" class="node">
<title>Node3</title>
<g id="a_node3"><a xlink:title=" ">
<polygon fill="#e0e0e0" stroke="#999999" points="122.5,-19 81.5,-19 81.5,0 122.5,0 122.5,-19"/>
<text text-anchor="middle" x="102" y="-7" font-family="Helvetica,sans-Serif" font-size="10.00">string</text>
</a>
</g>
</g>
<!-- Node1&#45;&gt;Node3 -->
<g id="edge2" class="edge">
<title>Node1&#45;&gt;Node3</title>
<path fill="none" stroke="#63b8ff" d="M74.43,-109.64C81.13,-99.46 88.57,-86.58 93,-74 97.94,-59.98 100.17,-43.31 101.18,-30.57"/>
<polygon fill="#63b8ff" stroke="#63b8ff" points="104.66,-31.08 101.75,-20.9 97.67,-30.68 104.66,-31.08"/>
</g>
<!-- Node4 -->
<g id="node4" class="node">
<title>Node4</title>
<g id="a_node4"><a xlink:href="cpf_8hpp.html" target="_top" xlink:title="Classe que verifica a validade do CPF.">
<polygon fill="white" stroke="#666666" points="84,-74 36,-74 36,-55 84,-55 84,-74"/>
<text text-anchor="middle" x="60" y="-62" font-family="Helvetica,sans-Serif" font-size="10.00">cpf.hpp</text>
</a>
</g>
</g>
<!-- Node1&#45;&gt;Node4 -->
<g id="edge3" class="edge">
<title>Node1&#45;&gt;Node4</title>
<path fill="none" stroke="#63b8ff" d="M60,-109.6C60,-101.98 60,-93.3 60,-85.66"/>
<polygon fill="#63b8ff" stroke="#63b8ff" points="63.5,-85.68 60,-75.68 56.5,-85.68 63.5,-85.68"/>
</g>
<!-- Node4&#45;&gt;Node2 -->
<g id="edge5" class="edge">
<title>Node4&#45;&gt;Node2</title>
<path fill="none" stroke="#63b8ff" d="M54.55,-54.75C50.23,-47.81 44.04,-37.86 38.62,-29.16"/>
<polygon fill="#63b8ff" stroke="#63b8ff" points="41.62,-27.37 33.37,-20.73 35.68,-31.07 41.62,-27.37"/>
</g>
<!-- Node4&#45;&gt;Node3 -->
<g id="edge4" class="edge">
<title>Node4&#45;&gt;Node3</title>
<path fill="none" stroke="#63b8ff" d="M66.94,-54.75C72.62,-47.58 80.84,-37.2 87.89,-28.3"/>
<polygon fill="#63b8ff" stroke="#63b8ff" points="90.51,-30.64 93.97,-20.63 85.02,-26.29 90.51,-30.64"/>
</g>
</g>
</svg>
