<?xml version="1.0" encoding="UTF-8" standalone="no"?>
<!DOCTYPE svg PUBLIC "-//W3C//DTD SVG 1.1//EN"
 "http://www.w3.org/Graphics/SVG/1.1/DTD/svg11.dtd">
<!-- Generated by graphviz version 7.0.3 (20221126.0506)
 -->
<!-- Title: Z:/home/lchinu/sbsgdg/Trabalho&#45;Pratico&#45;PDS&#45;II/include/titular.hpp Pages: 1 -->
<svg width="160pt" height="214pt"
 viewBox="0.00 0.00 159.50 214.00" xmlns="http://www.w3.org/2000/svg" xmlns:xlink="http://www.w3.org/1999/xlink">
<g id="graph0" class="graph" transform="scale(1 1) rotate(0) translate(4 210)">
<title>Z:/home/lchinu/sbsgdg/Trabalho&#45;Pratico&#45;PDS&#45;II/include/titular.hpp</title>
<!-- Node1 -->
<g id="node1" class="node">
<title>Node1</title>
<g id="a_node1"><a xlink:title="Classe que cria as contas titulares.">
<polygon fill="#999999" stroke="#666666" points="130,-206 15,-206 15,-165 130,-165 130,-206"/>
<text text-anchor="start" x="23" y="-194" font-family="Helvetica,sans-Serif" font-size="10.00">Z:/home/lchinu/sbsgdg</text>
<text text-anchor="start" x="23" y="-183" font-family="Helvetica,sans-Serif" font-size="10.00">/Trabalho&#45;Pratico&#45;PDS</text>
<text text-anchor="middle" x="72.5" y="-172" font-family="Helvetica,sans-Serif" font-size="10.00">&#45;II/include/titular.hpp</text>
</a>
</g>
</g>
<!-- Node2 -->
<g id="node2" class="node">
<title>Node2</title>
<g id="a_node2"><a xlink:title=" ">
<polygon fill="#e0e0e0" stroke="#999999" points="151.5,-19 97.5,-19 97.5,0 151.5,0 151.5,-19"/>
<text text-anchor="middle" x="124.5" y="-7" font-family="Helvetica,sans-Serif" font-size="10.00">iostream</text>
</a>
</g>
</g>
<!-- Node1&#45;&gt;Node2 -->
<g id="edge1" class="edge">
<title>Node1&#45;&gt;Node2</title>
<path fill="none" stroke="#63b8ff" d="M92.16,-164.58C100.75,-154.68 110.09,-142.06 115.5,-129 128.96,-96.53 128.49,-54.79 126.67,-30.5"/>
<polygon fill="#63b8ff" stroke="#63b8ff" points="130.17,-30.4 125.77,-20.76 123.2,-31.04 130.17,-30.4"/>
</g>
<!-- Node3 -->
<g id="node3" class="node">
<title>Node3</title>
<g id="a_node3"><a xlink:title=" ">
<polygon fill="#e0e0e0" stroke="#999999" points="41,-19 0,-19 0,0 41,0 41,-19"/>
<text text-anchor="middle" x="20.5" y="-7" font-family="Helvetica,sans-Serif" font-size="10.00">string</text>
</a>
</g>
</g>
<!-- Node1&#45;&gt;Node3 -->
<g id="edge2" class="edge">
<title>Node1&#45;&gt;Node3</title>
<path fill="none" stroke="#63b8ff" d="M52.54,-164.7C43.88,-154.83 34.58,-142.2 29.5,-129 16.87,-96.19 17.07,-54.57 18.61,-30.39"/>
<polygon fill="#63b8ff" stroke="#63b8ff" points="22.07,-30.96 19.38,-20.71 15.1,-30.4 22.07,-30.96"/>
</g>
<!-- Node4 -->
<g id="node4" class="node">
<title>Node4</title>
<g id="a_node4"><a xlink:href="pessoa_8hpp.html" target="_top" xlink:title="Classe que cria a pessoa dona da conta.">
<polygon fill="white" stroke="#666666" points="106,-129 39,-129 39,-110 106,-110 106,-129"/>
<text text-anchor="middle" x="72.5" y="-117" font-family="Helvetica,sans-Serif" font-size="10.00">pessoa.hpp</text>
</a>
</g>
</g>
<!-- Node1&#45;&gt;Node4 -->
<g id="edge3" class="edge">
<title>Node1&#45;&gt;Node4</title>
<path fill="none" stroke="#63b8ff" d="M72.5,-164.6C72.5,-156.98 72.5,-148.3 72.5,-140.66"/>
<polygon fill="#63b8ff" stroke="#63b8ff" points="76,-140.68 72.5,-130.68 69,-140.68 76,-140.68"/>
</g>
<!-- Node4&#45;&gt;Node2 -->
<g id="edge4" class="edge">
<title>Node4&#45;&gt;Node2</title>
<path fill="none" stroke="#63b8ff" d="M80.6,-109.58C88,-101.01 98.78,-87.42 105.5,-74 112.45,-60.12 117.35,-43.24 120.43,-30.37"/>
<polygon fill="#63b8ff" stroke="#63b8ff" points="123.77,-31.49 122.51,-20.97 116.94,-29.98 123.77,-31.49"/>
</g>
<!-- Node4&#45;&gt;Node3 -->
<g id="edge5" class="edge">
<title>Node4&#45;&gt;Node3</title>
<path fill="none" stroke="#63b8ff" d="M64.4,-109.58C57,-101.01 46.22,-87.42 39.5,-74 32.55,-60.12 27.65,-43.24 24.57,-30.37"/>
<polygon fill="#63b8ff" stroke="#63b8ff" points="28.06,-29.98 22.49,-20.97 21.23,-31.49 28.06,-29.98"/>
</g>
<!-- Node5 -->
<g id="node5" class="node">
<title>Node5</title>
<g id="a_node5"><a xlink:href="cpf_8hpp.html" target="_top" xlink:title="Classe que verifica a validade do CPF.">
<polygon fill="white" stroke="#666666" points="96.5,-74 48.5,-74 48.5,-55 96.5,-55 96.5,-74"/>
<text text-anchor="middle" x="72.5" y="-62" font-family="Helvetica,sans-Serif" font-size="10.00">cpf.hpp</text>
</a>
</g>
</g>
<!-- Node4&#45;&gt;Node5 -->
<g id="edge6" class="edge">
<title>Node4&#45;&gt;Node5</title>
<path fill="none" stroke="#63b8ff" d="M72.5,-109.75C72.5,-103.27 72.5,-94.16 72.5,-85.9"/>
<polygon fill="#63b8ff" stroke="#63b8ff" points="76,-85.96 72.5,-75.96 69,-85.96 76,-85.96"/>
</g>
<!-- Node5&#45;&gt;Node2 -->
<g id="edge8" class="edge">
<title>Node5&#45;&gt;Node2</title>
<path fill="none" stroke="#63b8ff" d="M81.09,-54.75C88.34,-47.35 98.95,-36.54 107.87,-27.45"/>
<polygon fill="#63b8ff" stroke="#63b8ff" points="110.16,-30.11 114.67,-20.52 105.16,-25.21 110.16,-30.11"/>
</g>
<!-- Node5&#45;&gt;Node3 -->
<g id="edge7" class="edge">
<title>Node5&#45;&gt;Node3</title>
<path fill="none" stroke="#63b8ff" d="M63.91,-54.75C56.66,-47.35 46.05,-36.54 37.13,-27.45"/>
<polygon fill="#63b8ff" stroke="#63b8ff" points="39.84,-25.21 30.33,-20.52 34.84,-30.11 39.84,-25.21"/>
</g>
</g>
</svg>
