<?xml version="1.0" encoding="UTF-8" standalone="no"?>
<!DOCTYPE svg PUBLIC "-//W3C//DTD SVG 1.1//EN"
 "http://www.w3.org/Graphics/SVG/1.1/DTD/svg11.dtd">
<!-- Generated by graphviz version 7.0.3 (20221126.0506)
 -->
<!-- Title: Z:/home/lchinu/sbsgdg/Trabalho&#45;Pratico&#45;PDS&#45;II/include/transacao.hpp Pages: 1 -->
<svg width="182pt" height="104pt"
 viewBox="0.00 0.00 181.50 104.00" xmlns="http://www.w3.org/2000/svg" xmlns:xlink="http://www.w3.org/1999/xlink">
<g id="graph0" class="graph" transform="scale(1 1) rotate(0) translate(4 100)">
<title>Z:/home/lchinu/sbsgdg/Trabalho&#45;Pratico&#45;PDS&#45;II/include/transacao.hpp</title>
<!-- Node1 -->
<g id="node1" class="node">
<title>Node1</title>
<g id="a_node1"><a xlink:title="Classe responsável pelo extrato.">
<polygon fill="#999999" stroke="#666666" points="154,-96 32,-96 32,-55 154,-55 154,-96"/>
<text text-anchor="start" x="40" y="-84" font-family="Helvetica,sans-Serif" font-size="10.00">Z:/home/lchinu/sbsgdg</text>
<text text-anchor="start" x="40" y="-73" font-family="Helvetica,sans-Serif" font-size="10.00">/Trabalho&#45;Pratico&#45;PDS</text>
<text text-anchor="middle" x="93" y="-62" font-family="Helvetica,sans-Serif" font-size="10.00">&#45;II/include/transacao.hpp</text>
</a>
</g>
</g>
<!-- Node2 -->
<g id="node2" class="node">
<title>Node2</title>
<g id="a_node2"><a xlink:title=" ">
<polygon fill="#e0e0e0" stroke="#999999" points="54,-19 0,-19 0,0 54,0 54,-19"/>
<text text-anchor="middle" x="27" y="-7" font-family="Helvetica,sans-Serif" font-size="10.00">iostream</text>
</a>
</g>
</g>
<!-- Node1&#45;&gt;Node2 -->
<g id="edge1" class="edge">
<title>Node1&#45;&gt;Node2</title>
<path fill="none" stroke="#63b8ff" d="M72.48,-54.6C63.38,-45.78 52.8,-35.51 44.13,-27.11"/>
<polygon fill="#63b8ff" stroke="#63b8ff" points="46.64,-24.66 37.02,-20.22 41.76,-29.69 46.64,-24.66"/>
</g>
<!-- Node3 -->
<g id="node3" class="node">
<title>Node3</title>
<g id="a_node3"><a xlink:title=" ">
<polygon fill="#e0e0e0" stroke="#999999" points="114,-19 72,-19 72,0 114,0 114,-19"/>
<text text-anchor="middle" x="93" y="-7" font-family="Helvetica,sans-Serif" font-size="10.00">vector</text>
</a>
</g>
</g>
<!-- Node1&#45;&gt;Node3 -->
<g id="edge2" class="edge">
<title>Node1&#45;&gt;Node3</title>
<path fill="none" stroke="#63b8ff" d="M93,-54.6C93,-46.98 93,-38.3 93,-30.66"/>
<polygon fill="#63b8ff" stroke="#63b8ff" points="96.5,-30.68 93,-20.68 89.5,-30.68 96.5,-30.68"/>
</g>
<!-- Node4 -->
<g id="node4" class="node">
<title>Node4</title>
<g id="a_node4"><a xlink:title=" ">
<polygon fill="#e0e0e0" stroke="#999999" points="173.5,-19 132.5,-19 132.5,0 173.5,0 173.5,-19"/>
<text text-anchor="middle" x="153" y="-7" font-family="Helvetica,sans-Serif" font-size="10.00">string</text>
</a>
</g>
</g>
<!-- Node1&#45;&gt;Node4 -->
<g id="edge3" class="edge">
<title>Node1&#45;&gt;Node4</title>
<path fill="none" stroke="#63b8ff" d="M111.66,-54.6C119.84,-45.87 129.35,-35.73 137.18,-27.38"/>
<polygon fill="#63b8ff" stroke="#63b8ff" points="139.56,-29.96 143.84,-20.27 134.45,-25.17 139.56,-29.96"/>
</g>
</g>
</svg>
