<?xml version="1.0" encoding="UTF-8" standalone="no"?>
<!DOCTYPE svg PUBLIC "-//W3C//DTD SVG 1.1//EN"
 "http://www.w3.org/Graphics/SVG/1.1/DTD/svg11.dtd">
<!-- Generated by graphviz version 7.0.3 (20221126.0506)
 -->
<!-- Title: Pessoa Pages: 1 -->
<svg width="239pt" height="259pt"
 viewBox="0.00 0.00 238.50 259.00" xmlns="http://www.w3.org/2000/svg" xmlns:xlink="http://www.w3.org/1999/xlink">
<g id="graph0" class="graph" transform="scale(1 1) rotate(0) translate(4 255)">
<title>Pessoa</title>
<!-- Node1 -->
<g id="node1" class="node">
<title>Node1</title>
<g id="a_node1"><a xlink:title="Classe criadora das pessoas.">
<polygon fill="#999999" stroke="#666666" points="151,-74 77,-74 77,0 151,0 151,-74"/>
<text text-anchor="middle" x="114" y="-62" font-family="Helvetica,sans-Serif" font-size="10.00">{Pessoa</text>
<text text-anchor="start" x="85" y="-51" font-family="Helvetica,sans-Serif" font-size="10.00">||+ Pessoa()</text>
<text text-anchor="start" x="85" y="-40" font-family="Helvetica,sans-Serif" font-size="10.00">+ get_nome()</text>
<text text-anchor="start" x="85" y="-29" font-family="Helvetica,sans-Serif" font-size="10.00">+ get_idade()</text>
<text text-anchor="start" x="85" y="-18" font-family="Helvetica,sans-Serif" font-size="10.00">+ get_cpf()</text>
<text text-anchor="middle" x="114" y="-7" font-family="Helvetica,sans-Serif" font-size="10.00">}</text>
</a>
</g>
</g>
<!-- Node2 -->
<g id="node2" class="node">
<title>Node2</title>
<g id="a_node2"><a xlink:title=" ">
<polygon fill="white" stroke="#666666" points="80.5,-162 17.5,-162 17.5,-132 80.5,-132 80.5,-162"/>
<text text-anchor="middle" x="49" y="-150" font-family="Helvetica,sans-Serif" font-size="10.00">{std::string</text>
<text text-anchor="middle" x="49" y="-139" font-family="Helvetica,sans-Serif" font-size="10.00">||}</text>
</a>
</g>
</g>
<!-- Node2&#45;&gt;Node1 -->
<g id="edge1" class="edge">
<title>Node2&#45;&gt;Node1</title>
<path fill="none" stroke="#404040" d="M55.9,-131.53C61.3,-120.5 69.19,-105.05 77,-92 78.35,-89.75 79.75,-87.47 81.19,-85.18"/>
<polygon fill="none" stroke="#404040" points="81.1,-85.33 81,-78.12 87.62,-75.25 87.72,-82.46 81.1,-85.33"/>
<text text-anchor="middle" x="93.5" y="-95" font-family="Helvetica,sans-Serif" font-size="10.00"> #nome</text>
</g>
<!-- Node3 -->
<g id="node3" class="node">
<title>Node3</title>
<g id="a_node3"><a xlink:title=" ">
<polygon fill="white" stroke="#666666" points="98,-251 0,-251 0,-210 98,-210 98,-251"/>
<text text-anchor="start" x="8" y="-239" font-family="Helvetica,sans-Serif" font-size="10.00">{std::basic_string&lt;</text>
<text text-anchor="middle" x="49" y="-228" font-family="Helvetica,sans-Serif" font-size="10.00"> Char &gt;</text>
<text text-anchor="middle" x="49" y="-217" font-family="Helvetica,sans-Serif" font-size="10.00">||}</text>
</a>
</g>
</g>
<!-- Node3&#45;&gt;Node2 -->
<g id="edge2" class="edge">
<title>Node3&#45;&gt;Node2</title>
<path fill="none" stroke="#63b8ff" d="M49,-198.45C49,-186.07 49,-172.41 49,-162.44"/>
<polygon fill="none" stroke="#63b8ff" points="45.5,-198.26 49,-208.26 52.5,-198.26 45.5,-198.26"/>
</g>
<!-- Node4 -->
<g id="node4" class="node">
<title>Node4</title>
<g id="a_node4"><a xlink:title=" ">
<polygon fill="white" stroke="#666666" points="129,-162 99,-162 99,-132 129,-132 129,-162"/>
<text text-anchor="middle" x="114" y="-150" font-family="Helvetica,sans-Serif" font-size="10.00">{int</text>
<text text-anchor="middle" x="114" y="-139" font-family="Helvetica,sans-Serif" font-size="10.00">||}</text>
</a>
</g>
</g>
<!-- Node4&#45;&gt;Node1 -->
<g id="edge3" class="edge">
<title>Node4&#45;&gt;Node1</title>
<path fill="none" stroke="#404040" d="M114,-131.88C114,-120.42 114,-103.55 114,-87.25"/>
<polygon fill="none" stroke="#404040" points="114,-87.33 110,-81.33 114,-75.33 118,-81.33 114,-87.33"/>
<text text-anchor="middle" x="130" y="-95" font-family="Helvetica,sans-Serif" font-size="10.00"> #idade</text>
</g>
<!-- Node5 -->
<g id="node5" class="node">
<title>Node5</title>
<g id="a_node5"><a xlink:href="$class_cpf.html" xlink:title="Classe responsável por verificar a validade do cpf.">
<polygon fill="white" stroke="#666666" points="230.5,-173 147.5,-173 147.5,-121 230.5,-121 230.5,-173"/>
<text text-anchor="middle" x="189" y="-161" font-family="Helvetica,sans-Serif" font-size="10.00">{Cpf</text>
<text text-anchor="start" x="155.5" y="-150" font-family="Helvetica,sans-Serif" font-size="10.00">||+ Cpf()</text>
<text text-anchor="start" x="155.5" y="-139" font-family="Helvetica,sans-Serif" font-size="10.00">+ get_numero()</text>
<text text-anchor="middle" x="189" y="-128" font-family="Helvetica,sans-Serif" font-size="10.00">}</text>
</a>
</g>
</g>
<!-- Node5&#45;&gt;Node1 -->
<g id="edge4" class="edge">
<title>Node5&#45;&gt;Node1</title>
<path fill="none" stroke="#404040" d="M171.42,-120.68C163.98,-109.97 155.08,-97.15 146.52,-84.83"/>
<polygon fill="none" stroke="#404040" points="146.5,-84.8 139.79,-82.16 139.66,-74.95 146.36,-77.59 146.5,-84.8"/>
<text text-anchor="middle" x="169" y="-95" font-family="Helvetica,sans-Serif" font-size="10.00"> #cpf</text>
</g>
</g>
</svg>
