<?xml version="1.0" encoding="UTF-8" standalone="no"?>
<!DOCTYPE svg PUBLIC "-//W3C//DTD SVG 1.1//EN"
 "http://www.w3.org/Graphics/SVG/1.1/DTD/svg11.dtd">
<!-- Generated by graphviz version 7.0.3 (20221126.0506)
 -->
<!-- Title: Conta Pages: 1 -->
<svg width="239pt" height="568pt"
 viewBox="0.00 0.00 238.50 568.00" xmlns="http://www.w3.org/2000/svg" xmlns:xlink="http://www.w3.org/1999/xlink">
<g id="graph0" class="graph" transform="scale(1 1) rotate(0) translate(4 564)">
<title>Conta</title>
<!-- Node1 -->
<g id="node1" class="node">
<title>Node1</title>
<g id="a_node1"><a xlink:title="Classe que direciona as operações criadas na classe banco.">
<polygon fill="#999999" stroke="#666666" points="202,-151 104,-151 104,0 202,0 202,-151"/>
<text text-anchor="middle" x="153" y="-139" font-family="Helvetica,sans-Serif" font-size="10.00">{Conta</text>
<text text-anchor="start" x="112" y="-128" font-family="Helvetica,sans-Serif" font-size="10.00">||+ Conta()</text>
<text text-anchor="start" x="112" y="-117" font-family="Helvetica,sans-Serif" font-size="10.00">+ realizaSaque()</text>
<text text-anchor="start" x="112" y="-106" font-family="Helvetica,sans-Serif" font-size="10.00">+ realizaDeposito()</text>
<text text-anchor="start" x="112" y="-95" font-family="Helvetica,sans-Serif" font-size="10.00">+ get_saldo()</text>
<text text-anchor="start" x="112" y="-84" font-family="Helvetica,sans-Serif" font-size="10.00">+ imprimeSaldo()</text>
<text text-anchor="start" x="112" y="-73" font-family="Helvetica,sans-Serif" font-size="10.00">+ transfere()</text>
<text text-anchor="start" x="112" y="-62" font-family="Helvetica,sans-Serif" font-size="10.00">+ ~Conta()</text>
<text text-anchor="start" x="112" y="-51" font-family="Helvetica,sans-Serif" font-size="10.00">+ get_titular()</text>
<text text-anchor="start" x="112" y="-40" font-family="Helvetica,sans-Serif" font-size="10.00">+ enviaValor()</text>
<text text-anchor="start" x="112" y="-29" font-family="Helvetica,sans-Serif" font-size="10.00">+ recebeValor()</text>
<text text-anchor="start" x="112" y="-18" font-family="Helvetica,sans-Serif" font-size="10.00"># taxaSaque()</text>
<text text-anchor="middle" x="153" y="-7" font-family="Helvetica,sans-Serif" font-size="10.00">}</text>
</a>
</g>
</g>
<!-- Node2 -->
<g id="node2" class="node">
<title>Node2</title>
<g id="a_node2"><a xlink:href="$class_titular.html" xlink:title="Classe responsável pela criação do login.">
<polygon fill="white" stroke="#666666" points="155,-272 73,-272 73,-198 155,-198 155,-272"/>
<text text-anchor="middle" x="114" y="-260" font-family="Helvetica,sans-Serif" font-size="10.00">{Titular</text>
<text text-anchor="start" x="81" y="-249" font-family="Helvetica,sans-Serif" font-size="10.00">||+ Titular()</text>
<text text-anchor="start" x="81" y="-238" font-family="Helvetica,sans-Serif" font-size="10.00">+ Titular()</text>
<text text-anchor="start" x="81" y="-227" font-family="Helvetica,sans-Serif" font-size="10.00">+ get_senha()</text>
<text text-anchor="start" x="81" y="-216" font-family="Helvetica,sans-Serif" font-size="10.00">+ get_usuario()</text>
<text text-anchor="middle" x="114" y="-205" font-family="Helvetica,sans-Serif" font-size="10.00">}</text>
</a>
</g>
</g>
<!-- Node2&#45;&gt;Node1 -->
<g id="edge1" class="edge">
<title>Node2&#45;&gt;Node1</title>
<path fill="none" stroke="#404040" d="M122.95,-197.87C125.5,-187.55 128.4,-175.85 131.37,-163.87"/>
<polygon fill="none" stroke="#404040" points="131.37,-163.86 128.93,-157.07 134.25,-152.21 136.69,-159 131.37,-163.86"/>
<text text-anchor="middle" x="147.5" y="-172" font-family="Helvetica,sans-Serif" font-size="10.00"> #titular</text>
</g>
<!-- Node3 -->
<g id="node3" class="node">
<title>Node3</title>
<g id="a_node3"><a xlink:href="$class_pessoa.html" xlink:title="Classe criadora das pessoas.">
<polygon fill="white" stroke="#666666" points="151,-383 77,-383 77,-309 151,-309 151,-383"/>
<text text-anchor="middle" x="114" y="-371" font-family="Helvetica,sans-Serif" font-size="10.00">{Pessoa</text>
<text text-anchor="start" x="85" y="-360" font-family="Helvetica,sans-Serif" font-size="10.00">||+ Pessoa()</text>
<text text-anchor="start" x="85" y="-349" font-family="Helvetica,sans-Serif" font-size="10.00">+ get_nome()</text>
<text text-anchor="start" x="85" y="-338" font-family="Helvetica,sans-Serif" font-size="10.00">+ get_idade()</text>
<text text-anchor="start" x="85" y="-327" font-family="Helvetica,sans-Serif" font-size="10.00">+ get_cpf()</text>
<text text-anchor="middle" x="114" y="-316" font-family="Helvetica,sans-Serif" font-size="10.00">}</text>
</a>
</g>
</g>
<!-- Node3&#45;&gt;Node2 -->
<g id="edge2" class="edge">
<title>Node3&#45;&gt;Node2</title>
<path fill="none" stroke="#63b8ff" d="M114,-297.38C114,-288.91 114,-280.22 114,-272.14"/>
<polygon fill="none" stroke="#63b8ff" points="110.5,-297.19 114,-307.19 117.5,-297.19 110.5,-297.19"/>
</g>
<!-- Node4 -->
<g id="node4" class="node">
<title>Node4</title>
<g id="a_node4"><a xlink:title=" ">
<polygon fill="white" stroke="#666666" points="80.5,-471 17.5,-471 17.5,-441 80.5,-441 80.5,-471"/>
<text text-anchor="middle" x="49" y="-459" font-family="Helvetica,sans-Serif" font-size="10.00">{std::string</text>
<text text-anchor="middle" x="49" y="-448" font-family="Helvetica,sans-Serif" font-size="10.00">||}</text>
</a>
</g>
</g>
<!-- Node4&#45;&gt;Node3 -->
<g id="edge3" class="edge">
<title>Node4&#45;&gt;Node3</title>
<path fill="none" stroke="#404040" d="M55.9,-440.53C61.3,-429.5 69.19,-414.05 77,-401 78.35,-398.75 79.75,-396.47 81.19,-394.18"/>
<polygon fill="none" stroke="#404040" points="81.1,-394.33 81,-387.12 87.62,-384.25 87.72,-391.46 81.1,-394.33"/>
<text text-anchor="middle" x="93.5" y="-404" font-family="Helvetica,sans-Serif" font-size="10.00"> #nome</text>
</g>
<!-- Node5 -->
<g id="node5" class="node">
<title>Node5</title>
<g id="a_node5"><a xlink:title=" ">
<polygon fill="white" stroke="#666666" points="98,-560 0,-560 0,-519 98,-519 98,-560"/>
<text text-anchor="start" x="8" y="-548" font-family="Helvetica,sans-Serif" font-size="10.00">{std::basic_string&lt;</text>
<text text-anchor="middle" x="49" y="-537" font-family="Helvetica,sans-Serif" font-size="10.00"> Char &gt;</text>
<text text-anchor="middle" x="49" y="-526" font-family="Helvetica,sans-Serif" font-size="10.00">||}</text>
</a>
</g>
</g>
<!-- Node5&#45;&gt;Node4 -->
<g id="edge4" class="edge">
<title>Node5&#45;&gt;Node4</title>
<path fill="none" stroke="#63b8ff" d="M49,-507.45C49,-495.07 49,-481.41 49,-471.44"/>
<polygon fill="none" stroke="#63b8ff" points="45.5,-507.26 49,-517.26 52.5,-507.26 45.5,-507.26"/>
</g>
<!-- Node6 -->
<g id="node6" class="node">
<title>Node6</title>
<g id="a_node6"><a xlink:title=" ">
<polygon fill="white" stroke="#666666" points="129,-471 99,-471 99,-441 129,-441 129,-471"/>
<text text-anchor="middle" x="114" y="-459" font-family="Helvetica,sans-Serif" font-size="10.00">{int</text>
<text text-anchor="middle" x="114" y="-448" font-family="Helvetica,sans-Serif" font-size="10.00">||}</text>
</a>
</g>
</g>
<!-- Node6&#45;&gt;Node3 -->
<g id="edge5" class="edge">
<title>Node6&#45;&gt;Node3</title>
<path fill="none" stroke="#404040" d="M114,-440.88C114,-429.42 114,-412.55 114,-396.25"/>
<polygon fill="none" stroke="#404040" points="114,-396.33 110,-390.33 114,-384.33 118,-390.33 114,-396.33"/>
<text text-anchor="middle" x="130" y="-404" font-family="Helvetica,sans-Serif" font-size="10.00"> #idade</text>
</g>
<!-- Node7 -->
<g id="node7" class="node">
<title>Node7</title>
<g id="a_node7"><a xlink:href="$class_cpf.html" xlink:title="Classe responsável por verificar a validade do cpf.">
<polygon fill="white" stroke="#666666" points="230.5,-482 147.5,-482 147.5,-430 230.5,-430 230.5,-482"/>
<text text-anchor="middle" x="189" y="-470" font-family="Helvetica,sans-Serif" font-size="10.00">{Cpf</text>
<text text-anchor="start" x="155.5" y="-459" font-family="Helvetica,sans-Serif" font-size="10.00">||+ Cpf()</text>
<text text-anchor="start" x="155.5" y="-448" font-family="Helvetica,sans-Serif" font-size="10.00">+ get_numero()</text>
<text text-anchor="middle" x="189" y="-437" font-family="Helvetica,sans-Serif" font-size="10.00">}</text>
</a>
</g>
</g>
<!-- Node7&#45;&gt;Node3 -->
<g id="edge6" class="edge">
<title>Node7&#45;&gt;Node3</title>
<path fill="none" stroke="#404040" d="M171.42,-429.68C163.98,-418.97 155.08,-406.15 146.52,-393.83"/>
<polygon fill="none" stroke="#404040" points="146.5,-393.8 139.79,-391.16 139.66,-383.95 146.36,-386.59 146.5,-393.8"/>
<text text-anchor="middle" x="169" y="-404" font-family="Helvetica,sans-Serif" font-size="10.00"> #cpf</text>
</g>
<!-- Node8 -->
<g id="node8" class="node">
<title>Node8</title>
<g id="a_node8"><a xlink:title=" ">
<polygon fill="white" stroke="#666666" points="211,-250 173,-250 173,-220 211,-220 211,-250"/>
<text text-anchor="middle" x="192" y="-238" font-family="Helvetica,sans-Serif" font-size="10.00">{float</text>
<text text-anchor="middle" x="192" y="-227" font-family="Helvetica,sans-Serif" font-size="10.00">||}</text>
</a>
</g>
</g>
<!-- Node8&#45;&gt;Node1 -->
<g id="edge7" class="edge">
<title>Node8&#45;&gt;Node1</title>
<path fill="none" stroke="#404040" d="M188.47,-219.75C185.19,-206.52 180.03,-185.64 174.64,-163.87"/>
<polygon fill="none" stroke="#404040" points="174.64,-163.9 169.32,-159.03 171.76,-152.25 177.08,-157.11 174.64,-163.9"/>
<text text-anchor="middle" x="194" y="-172" font-family="Helvetica,sans-Serif" font-size="10.00"> #saldo</text>
</g>
</g>
</svg>
