<?xml version="1.0" encoding="UTF-8" standalone="no"?>
<!DOCTYPE svg PUBLIC "-//W3C//DTD SVG 1.1//EN"
 "http://www.w3.org/Graphics/SVG/1.1/DTD/svg11.dtd">
<!-- Generated by graphviz version 7.0.3 (20221126.0506)
 -->
<!-- Title: Banco::realizaOperacao Pages: 1 -->
<svg width="433pt" height="288pt"
 viewBox="0.00 0.00 433.00 288.00" xmlns="http://www.w3.org/2000/svg" xmlns:xlink="http://www.w3.org/1999/xlink">
<g id="graph0" class="graph" transform="scale(1 1) rotate(0) translate(4 284)">
<title>Banco::realizaOperacao</title>
<!-- Node1 -->
<g id="node1" class="node">
<title>Node1</title>
<g id="a_node1"><a xlink:title="após selecionada a opção desejada, o caixa realiza a operação">
<polygon fill="#999999" stroke="#666666" points="121,-148 0,-148 0,-129 121,-129 121,-148"/>
<text text-anchor="middle" x="60.5" y="-136" font-family="Helvetica,sans-Serif" font-size="10.00">Banco::realizaOperacao</text>
</a>
</g>
</g>
<!-- Node2 -->
<g id="node2" class="node">
<title>Node2</title>
<g id="a_node2"><a xlink:href="$banco_8cpp.html#a11dd74a42724806dfa32ad2635eb42da" xlink:title=" ">
<polygon fill="white" stroke="#666666" points="245.5,-280 202.5,-280 202.5,-261 245.5,-261 245.5,-280"/>
<text text-anchor="middle" x="224" y="-268" font-family="Helvetica,sans-Serif" font-size="10.00">existe</text>
</a>
</g>
</g>
<!-- Node1&#45;&gt;Node2 -->
<g id="edge1" class="edge">
<title>Node1&#45;&gt;Node2</title>
<path fill="none" stroke="#63b8ff" d="M67.68,-148.32C81.31,-169.26 116.04,-218.61 157,-246.5 167.28,-253.5 179.85,-258.73 191.24,-262.49"/>
<polygon fill="#63b8ff" stroke="#63b8ff" points="190.09,-265.8 200.68,-265.34 192.11,-259.1 190.09,-265.8"/>
</g>
<!-- Node3 -->
<g id="node3" class="node">
<title>Node3</title>
<g id="a_node3"><a xlink:href="$class_pessoa.html#a34b68331ab3c85806eb1d98c3203a359" xlink:title="É definido para o objeto pessoa um nome.">
<polygon fill="white" stroke="#666666" points="425,-186 327,-186 327,-167 425,-167 425,-186"/>
<text text-anchor="middle" x="376" y="-174" font-family="Helvetica,sans-Serif" font-size="10.00">Pessoa::get_nome</text>
</a>
</g>
</g>
<!-- Node1&#45;&gt;Node3 -->
<g id="edge2" class="edge">
<title>Node1&#45;&gt;Node3</title>
<path fill="none" stroke="#63b8ff" d="M69.72,-148.27C84.87,-165.44 119.14,-200.41 157,-213.5 213.29,-232.96 232.72,-225.77 291,-213.5 311.21,-209.25 332.49,-199.82 348.57,-191.54"/>
<polygon fill="#63b8ff" stroke="#63b8ff" points="349.82,-194.84 356.99,-187.05 346.52,-188.67 349.82,-194.84"/>
</g>
<!-- Node4 -->
<g id="node4" class="node">
<title>Node4</title>
<g id="a_node4"><a xlink:href="$class_conta.html#ad2edd6afe6af8b7d0705a5cbb28640e1" xlink:title="Busca o titular da conta logada.">
<polygon fill="white" stroke="#666666" points="269.5,-204 178.5,-204 178.5,-185 269.5,-185 269.5,-204"/>
<text text-anchor="middle" x="224" y="-192" font-family="Helvetica,sans-Serif" font-size="10.00">Conta::get_titular</text>
</a>
</g>
</g>
<!-- Node1&#45;&gt;Node4 -->
<g id="edge3" class="edge">
<title>Node1&#45;&gt;Node4</title>
<path fill="none" stroke="#63b8ff" d="M84.39,-148.45C103.57,-156.58 131.78,-168.07 157,-176.5 162.08,-178.2 167.42,-179.86 172.78,-181.44"/>
<polygon fill="#63b8ff" stroke="#63b8ff" points="171.66,-184.76 182.24,-184.14 173.59,-178.03 171.66,-184.76"/>
</g>
<!-- Node5 -->
<g id="node5" class="node">
<title>Node5</title>
<g id="a_node5"><a xlink:href="$class_banco.html#a817aa470fa98f4de994754e48c5d22f7" xlink:title="Responsável por reunir todas as transações feitas.">
<polygon fill="white" stroke="#666666" points="282,-167 166,-167 166,-148 282,-148 282,-167"/>
<text text-anchor="middle" x="224" y="-155" font-family="Helvetica,sans-Serif" font-size="10.00">Banco::imprimeExtrato</text>
</a>
</g>
</g>
<!-- Node1&#45;&gt;Node5 -->
<g id="edge4" class="edge">
<title>Node1&#45;&gt;Node5</title>
<path fill="none" stroke="#63b8ff" d="M121.18,-145.52C131.98,-146.79 143.33,-148.13 154.36,-149.42"/>
<polygon fill="#63b8ff" stroke="#63b8ff" points="153.87,-152.89 164.21,-150.58 154.69,-145.94 153.87,-152.89"/>
</g>
<!-- Node6 -->
<g id="node6" class="node">
<title>Node6</title>
<g id="a_node6"><a xlink:href="$class_conta.html#a7b8dad223628472f3453e768d92c4ad9" xlink:title="Imprime o saldo atual da conta.">
<polygon fill="white" stroke="#666666" points="277.5,-130 170.5,-130 170.5,-111 277.5,-111 277.5,-130"/>
<text text-anchor="middle" x="224" y="-118" font-family="Helvetica,sans-Serif" font-size="10.00">Conta::imprimeSaldo</text>
</a>
</g>
</g>
<!-- Node1&#45;&gt;Node6 -->
<g id="edge5" class="edge">
<title>Node1&#45;&gt;Node6</title>
<path fill="none" stroke="#63b8ff" d="M121.18,-131.85C133.49,-130.48 146.51,-129.03 158.97,-127.64"/>
<polygon fill="#63b8ff" stroke="#63b8ff" points="159.17,-131.14 168.72,-126.55 158.39,-124.18 159.17,-131.14"/>
</g>
<!-- Node7 -->
<g id="node7" class="node">
<title>Node7</title>
<g id="a_node7"><a xlink:href="$class_conta.html#ac3b987361e0938ce39bcb37097f2293f" xlink:title="Realiza um saque da conta logada.">
<polygon fill="white" stroke="#666666" points="281.5,-93 166.5,-93 166.5,-74 281.5,-74 281.5,-93"/>
<text text-anchor="middle" x="224" y="-81" font-family="Helvetica,sans-Serif" font-size="10.00">Conta::realizaDeposito</text>
</a>
</g>
</g>
<!-- Node1&#45;&gt;Node7 -->
<g id="edge7" class="edge">
<title>Node1&#45;&gt;Node7</title>
<path fill="none" stroke="#63b8ff" d="M86.04,-128.63C105.22,-121.07 132.62,-110.59 157,-102.5 163.09,-100.48 169.54,-98.47 175.92,-96.55"/>
<polygon fill="#63b8ff" stroke="#63b8ff" points="176.47,-100.04 185.08,-93.86 174.5,-93.32 176.47,-100.04"/>
</g>
<!-- Node8 -->
<g id="node8" class="node">
<title>Node8</title>
<g id="a_node8"><a xlink:href="$class_conta.html#a82c23c19eb795d3a5902d9c6c91737e5" xlink:title="Realiza um saque da conta logada.">
<polygon fill="white" stroke="#666666" points="276,-56 172,-56 172,-37 276,-37 276,-56"/>
<text text-anchor="middle" x="224" y="-44" font-family="Helvetica,sans-Serif" font-size="10.00">Conta::realizaSaque</text>
</a>
</g>
</g>
<!-- Node1&#45;&gt;Node8 -->
<g id="edge8" class="edge">
<title>Node1&#45;&gt;Node8</title>
<path fill="none" stroke="#63b8ff" d="M71.45,-128.58C87.87,-112.75 122.28,-81.82 157,-64.5 160.09,-62.96 163.33,-61.54 166.64,-60.22"/>
<polygon fill="#63b8ff" stroke="#63b8ff" points="167.71,-63.56 175.96,-56.91 165.37,-56.96 167.71,-63.56"/>
</g>
<!-- Node10 -->
<g id="node10" class="node">
<title>Node10</title>
<g id="a_node10"><a xlink:href="$class_banco.html#a6ca00f185c77fbd74935f5a6c0a07c27" xlink:title="O usuario logado escolhe a operacao que será realzada no caixa eletrônico.">
<polygon fill="white" stroke="#666666" points="291,-19 157,-19 157,0 291,0 291,-19"/>
<text text-anchor="middle" x="224" y="-7" font-family="Helvetica,sans-Serif" font-size="10.00">Banco::selecionaOperacao</text>
</a>
</g>
</g>
<!-- Node1&#45;&gt;Node10 -->
<g id="edge10" class="edge">
<title>Node1&#45;&gt;Node10</title>
<path fill="none" stroke="#63b8ff" d="M67.04,-128.79C79.9,-107.13 114.01,-54.65 157,-27.5 159,-26.24 161.09,-25.06 163.24,-23.97"/>
<polygon fill="#63b8ff" stroke="#63b8ff" points="164.51,-27.23 172.28,-20.02 161.71,-20.81 164.51,-27.23"/>
</g>
<!-- Node6&#45;&gt;Node3 -->
<g id="edge6" class="edge">
<title>Node6&#45;&gt;Node3</title>
<path fill="none" stroke="#63b8ff" d="M262.98,-130.49C272.22,-133.18 282.03,-136.25 291,-139.5 309.02,-146.03 328.64,-154.59 344.39,-161.83"/>
<polygon fill="#63b8ff" stroke="#63b8ff" points="342.69,-164.9 353.23,-165.95 345.65,-158.55 342.69,-164.9"/>
</g>
<!-- Node9 -->
<g id="node9" class="node">
<title>Node9</title>
<g id="a_node9"><a xlink:href="$class_conta.html#a3c4eb6c5bc2f231841ea4f497211142a" xlink:title="Define a taxa a conta logada deve pagar para sacar.">
<polygon fill="white" stroke="#666666" points="423.5,-56 328.5,-56 328.5,-37 423.5,-37 423.5,-56"/>
<text text-anchor="middle" x="376" y="-44" font-family="Helvetica,sans-Serif" font-size="10.00">Conta::taxaSaque</text>
</a>
</g>
</g>
<!-- Node8&#45;&gt;Node9 -->
<g id="edge9" class="edge">
<title>Node8&#45;&gt;Node9</title>
<path fill="none" stroke="#63b8ff" d="M276.2,-46.5C289.2,-46.5 303.26,-46.5 316.59,-46.5"/>
<polygon fill="#63b8ff" stroke="#63b8ff" points="316.55,-50 326.55,-46.5 316.55,-43 316.55,-50"/>
</g>
</g>
</svg>
