<?xml version="1.0" encoding="UTF-8" standalone="no"?>
<!DOCTYPE svg PUBLIC "-//W3C//DTD SVG 1.1//EN"
 "http://www.w3.org/Graphics/SVG/1.1/DTD/svg11.dtd">
<!-- Generated by graphviz version 7.0.3 (20221126.0506)
 -->
<!-- Title: Conta::transfere Pages: 1 -->
<svg width="230pt" height="101pt"
 viewBox="0.00 0.00 230.00 101.00" xmlns="http://www.w3.org/2000/svg" xmlns:xlink="http://www.w3.org/1999/xlink">
<g id="graph0" class="graph" transform="scale(1 1) rotate(0) translate(4 97)">
<title>Conta::transfere</title>
<!-- Node1 -->
<g id="node1" class="node">
<title>Node1</title>
<g id="a_node1"><a xlink:title="Transfere um valor para outra conta.">
<polygon fill="#999999" stroke="#666666" points="86,-56 0,-56 0,-37 86,-37 86,-56"/>
<text text-anchor="middle" x="43" y="-44" font-family="Helvetica,sans-Serif" font-size="10.00">Conta::transfere</text>
</a>
</g>
</g>
<!-- Node2 -->
<g id="node2" class="node">
<title>Node2</title>
<g id="a_node2"><a xlink:href="$class_conta.html#abfad02c9df7613b614f460ca35cb01df" xlink:title="Enviar um valor específico.">
<polygon fill="white" stroke="#666666" points="218,-93 126,-93 126,-74 218,-74 218,-93"/>
<text text-anchor="middle" x="172" y="-81" font-family="Helvetica,sans-Serif" font-size="10.00">Conta::enviaValor</text>
</a>
</g>
</g>
<!-- Node1&#45;&gt;Node2 -->
<g id="edge1" class="edge">
<title>Node1&#45;&gt;Node2</title>
<path fill="none" stroke="#63b8ff" d="M78.03,-56.42C92.84,-60.73 110.39,-65.84 126.23,-70.46"/>
<polygon fill="#63b8ff" stroke="#63b8ff" points="124.84,-73.7 135.42,-73.13 126.8,-66.98 124.84,-73.7"/>
</g>
<!-- Node3 -->
<g id="node3" class="node">
<title>Node3</title>
<g id="a_node3"><a xlink:href="$class_pessoa.html#a34b68331ab3c85806eb1d98c3203a359" xlink:title="É definido para o objeto pessoa um nome.">
<polygon fill="white" stroke="#666666" points="221,-56 123,-56 123,-37 221,-37 221,-56"/>
<text text-anchor="middle" x="172" y="-44" font-family="Helvetica,sans-Serif" font-size="10.00">Pessoa::get_nome</text>
</a>
</g>
</g>
<!-- Node1&#45;&gt;Node3 -->
<g id="edge2" class="edge">
<title>Node1&#45;&gt;Node3</title>
<path fill="none" stroke="#63b8ff" d="M86.29,-46.5C94.33,-46.5 102.87,-46.5 111.33,-46.5"/>
<polygon fill="#63b8ff" stroke="#63b8ff" points="111.24,-50 121.24,-46.5 111.24,-43 111.24,-50"/>
</g>
<!-- Node4 -->
<g id="node4" class="node">
<title>Node4</title>
<g id="a_node4"><a xlink:href="$class_conta.html#a0e3fd0b12bd74fe63e280995e5b156ed" xlink:title="Recebe um valor específico.">
<polygon fill="white" stroke="#666666" points="222,-19 122,-19 122,0 222,0 222,-19"/>
<text text-anchor="middle" x="172" y="-7" font-family="Helvetica,sans-Serif" font-size="10.00">Conta::recebeValor</text>
</a>
</g>
</g>
<!-- Node1&#45;&gt;Node4 -->
<g id="edge3" class="edge">
<title>Node1&#45;&gt;Node4</title>
<path fill="none" stroke="#63b8ff" d="M78.03,-36.58C92.84,-32.27 110.39,-27.16 126.23,-22.54"/>
<polygon fill="#63b8ff" stroke="#63b8ff" points="126.8,-26.02 135.42,-19.87 124.84,-19.3 126.8,-26.02"/>
</g>
</g>
</svg>
