<?xml version="1.0" encoding="UTF-8" standalone="no"?>
<!DOCTYPE svg PUBLIC "-//W3C//DTD SVG 1.1//EN"
 "http://www.w3.org/Graphics/SVG/1.1/DTD/svg11.dtd">
<!-- Generated by graphviz version 7.0.3 (20221126.0506)
 -->
<!-- Title: ContaUniversitaria Pages: 1 -->
<svg width="239pt" height="657pt"
 viewBox="0.00 0.00 238.50 657.00" xmlns="http://www.w3.org/2000/svg" xmlns:xlink="http://www.w3.org/1999/xlink">
<g id="graph0" class="graph" transform="scale(1 1) rotate(0) translate(4 653)">
<title>ContaUniversitaria</title>
<!-- Node1 -->
<g id="node1" class="node">
<title>Node1</title>
<g id="a_node1"><a xlink:title="Classe respnsável por linkar uma conta ao tipo universitária.">
<polygon fill="#999999" stroke="#666666" points="210,-52 96,-52 96,0 210,0 210,-52"/>
<text text-anchor="middle" x="153" y="-40" font-family="Helvetica,sans-Serif" font-size="10.00">{ContaUniversitaria</text>
<text text-anchor="start" x="104" y="-29" font-family="Helvetica,sans-Serif" font-size="10.00">||+ ContaUniversitaria()</text>
<text text-anchor="start" x="104" y="-18" font-family="Helvetica,sans-Serif" font-size="10.00">+ taxaSaque()</text>
<text text-anchor="middle" x="153" y="-7" font-family="Helvetica,sans-Serif" font-size="10.00">}</text>
</a>
</g>
</g>
<!-- Node2 -->
<g id="node2" class="node">
<title>Node2</title>
<g id="a_node2"><a xlink:href="$class_conta.html" xlink:title="Classe que direciona as operações criadas na classe banco.">
<polygon fill="white" stroke="#666666" points="202,-240 104,-240 104,-89 202,-89 202,-240"/>
<text text-anchor="middle" x="153" y="-228" font-family="Helvetica,sans-Serif" font-size="10.00">{Conta</text>
<text text-anchor="start" x="112" y="-217" font-family="Helvetica,sans-Serif" font-size="10.00">||+ Conta()</text>
<text text-anchor="start" x="112" y="-206" font-family="Helvetica,sans-Serif" font-size="10.00">+ realizaSaque()</text>
<text text-anchor="start" x="112" y="-195" font-family="Helvetica,sans-Serif" font-size="10.00">+ realizaDeposito()</text>
<text text-anchor="start" x="112" y="-184" font-family="Helvetica,sans-Serif" font-size="10.00">+ get_saldo()</text>
<text text-anchor="start" x="112" y="-173" font-family="Helvetica,sans-Serif" font-size="10.00">+ imprimeSaldo()</text>
<text text-anchor="start" x="112" y="-162" font-family="Helvetica,sans-Serif" font-size="10.00">+ transfere()</text>
<text text-anchor="start" x="112" y="-151" font-family="Helvetica,sans-Serif" font-size="10.00">+ ~Conta()</text>
<text text-anchor="start" x="112" y="-140" font-family="Helvetica,sans-Serif" font-size="10.00">+ get_titular()</text>
<text text-anchor="start" x="112" y="-129" font-family="Helvetica,sans-Serif" font-size="10.00">+ enviaValor()</text>
<text text-anchor="start" x="112" y="-118" font-family="Helvetica,sans-Serif" font-size="10.00">+ recebeValor()</text>
<text text-anchor="start" x="112" y="-107" font-family="Helvetica,sans-Serif" font-size="10.00"># taxaSaque()</text>
<text text-anchor="middle" x="153" y="-96" font-family="Helvetica,sans-Serif" font-size="10.00">}</text>
</a>
</g>
</g>
<!-- Node2&#45;&gt;Node1 -->
<g id="edge1" class="edge">
<title>Node2&#45;&gt;Node1</title>
<path fill="none" stroke="#63b8ff" d="M153,-77.55C153,-68.42 153,-59.74 153,-52.24"/>
<polygon fill="none" stroke="#63b8ff" points="149.5,-77.35 153,-87.35 156.5,-77.35 149.5,-77.35"/>
</g>
<!-- Node3 -->
<g id="node3" class="node">
<title>Node3</title>
<g id="a_node3"><a xlink:href="$class_titular.html" xlink:title="Classe responsável pela criação do login.">
<polygon fill="white" stroke="#666666" points="155,-361 73,-361 73,-287 155,-287 155,-361"/>
<text text-anchor="middle" x="114" y="-349" font-family="Helvetica,sans-Serif" font-size="10.00">{Titular</text>
<text text-anchor="start" x="81" y="-338" font-family="Helvetica,sans-Serif" font-size="10.00">||+ Titular()</text>
<text text-anchor="start" x="81" y="-327" font-family="Helvetica,sans-Serif" font-size="10.00">+ Titular()</text>
<text text-anchor="start" x="81" y="-316" font-family="Helvetica,sans-Serif" font-size="10.00">+ get_senha()</text>
<text text-anchor="start" x="81" y="-305" font-family="Helvetica,sans-Serif" font-size="10.00">+ get_usuario()</text>
<text text-anchor="middle" x="114" y="-294" font-family="Helvetica,sans-Serif" font-size="10.00">}</text>
</a>
</g>
</g>
<!-- Node3&#45;&gt;Node2 -->
<g id="edge2" class="edge">
<title>Node3&#45;&gt;Node2</title>
<path fill="none" stroke="#404040" d="M122.95,-286.87C125.5,-276.55 128.4,-264.85 131.37,-252.87"/>
<polygon fill="none" stroke="#404040" points="131.37,-252.86 128.93,-246.07 134.25,-241.21 136.69,-248 131.37,-252.86"/>
<text text-anchor="middle" x="147.5" y="-261" font-family="Helvetica,sans-Serif" font-size="10.00"> #titular</text>
</g>
<!-- Node4 -->
<g id="node4" class="node">
<title>Node4</title>
<g id="a_node4"><a xlink:href="$class_pessoa.html" xlink:title="Classe criadora das pessoas.">
<polygon fill="white" stroke="#666666" points="151,-472 77,-472 77,-398 151,-398 151,-472"/>
<text text-anchor="middle" x="114" y="-460" font-family="Helvetica,sans-Serif" font-size="10.00">{Pessoa</text>
<text text-anchor="start" x="85" y="-449" font-family="Helvetica,sans-Serif" font-size="10.00">||+ Pessoa()</text>
<text text-anchor="start" x="85" y="-438" font-family="Helvetica,sans-Serif" font-size="10.00">+ get_nome()</text>
<text text-anchor="start" x="85" y="-427" font-family="Helvetica,sans-Serif" font-size="10.00">+ get_idade()</text>
<text text-anchor="start" x="85" y="-416" font-family="Helvetica,sans-Serif" font-size="10.00">+ get_cpf()</text>
<text text-anchor="middle" x="114" y="-405" font-family="Helvetica,sans-Serif" font-size="10.00">}</text>
</a>
</g>
</g>
<!-- Node4&#45;&gt;Node3 -->
<g id="edge3" class="edge">
<title>Node4&#45;&gt;Node3</title>
<path fill="none" stroke="#63b8ff" d="M114,-386.38C114,-377.91 114,-369.22 114,-361.14"/>
<polygon fill="none" stroke="#63b8ff" points="110.5,-386.19 114,-396.19 117.5,-386.19 110.5,-386.19"/>
</g>
<!-- Node5 -->
<g id="node5" class="node">
<title>Node5</title>
<g id="a_node5"><a xlink:title=" ">
<polygon fill="white" stroke="#666666" points="80.5,-560 17.5,-560 17.5,-530 80.5,-530 80.5,-560"/>
<text text-anchor="middle" x="49" y="-548" font-family="Helvetica,sans-Serif" font-size="10.00">{std::string</text>
<text text-anchor="middle" x="49" y="-537" font-family="Helvetica,sans-Serif" font-size="10.00">||}</text>
</a>
</g>
</g>
<!-- Node5&#45;&gt;Node4 -->
<g id="edge4" class="edge">
<title>Node5&#45;&gt;Node4</title>
<path fill="none" stroke="#404040" d="M55.9,-529.53C61.3,-518.5 69.19,-503.05 77,-490 78.35,-487.75 79.75,-485.47 81.19,-483.18"/>
<polygon fill="none" stroke="#404040" points="81.1,-483.33 81,-476.12 87.62,-473.25 87.72,-480.46 81.1,-483.33"/>
<text text-anchor="middle" x="93.5" y="-493" font-family="Helvetica,sans-Serif" font-size="10.00"> #nome</text>
</g>
<!-- Node6 -->
<g id="node6" class="node">
<title>Node6</title>
<g id="a_node6"><a xlink:title=" ">
<polygon fill="white" stroke="#666666" points="98,-649 0,-649 0,-608 98,-608 98,-649"/>
<text text-anchor="start" x="8" y="-637" font-family="Helvetica,sans-Serif" font-size="10.00">{std::basic_string&lt;</text>
<text text-anchor="middle" x="49" y="-626" font-family="Helvetica,sans-Serif" font-size="10.00"> Char &gt;</text>
<text text-anchor="middle" x="49" y="-615" font-family="Helvetica,sans-Serif" font-size="10.00">||}</text>
</a>
</g>
</g>
<!-- Node6&#45;&gt;Node5 -->
<g id="edge5" class="edge">
<title>Node6&#45;&gt;Node5</title>
<path fill="none" stroke="#63b8ff" d="M49,-596.45C49,-584.07 49,-570.41 49,-560.44"/>
<polygon fill="none" stroke="#63b8ff" points="45.5,-596.26 49,-606.26 52.5,-596.26 45.5,-596.26"/>
</g>
<!-- Node7 -->
<g id="node7" class="node">
<title>Node7</title>
<g id="a_node7"><a xlink:title=" ">
<polygon fill="white" stroke="#666666" points="129,-560 99,-560 99,-530 129,-530 129,-560"/>
<text text-anchor="middle" x="114" y="-548" font-family="Helvetica,sans-Serif" font-size="10.00">{int</text>
<text text-anchor="middle" x="114" y="-537" font-family="Helvetica,sans-Serif" font-size="10.00">||}</text>
</a>
</g>
</g>
<!-- Node7&#45;&gt;Node4 -->
<g id="edge6" class="edge">
<title>Node7&#45;&gt;Node4</title>
<path fill="none" stroke="#404040" d="M114,-529.88C114,-518.42 114,-501.55 114,-485.25"/>
<polygon fill="none" stroke="#404040" points="114,-485.33 110,-479.33 114,-473.33 118,-479.33 114,-485.33"/>
<text text-anchor="middle" x="130" y="-493" font-family="Helvetica,sans-Serif" font-size="10.00"> #idade</text>
</g>
<!-- Node8 -->
<g id="node8" class="node">
<title>Node8</title>
<g id="a_node8"><a xlink:href="$class_cpf.html" xlink:title="Classe responsável por verificar a validade do cpf.">
<polygon fill="white" stroke="#666666" points="230.5,-571 147.5,-571 147.5,-519 230.5,-519 230.5,-571"/>
<text text-anchor="middle" x="189" y="-559" font-family="Helvetica,sans-Serif" font-size="10.00">{Cpf</text>
<text text-anchor="start" x="155.5" y="-548" font-family="Helvetica,sans-Serif" font-size="10.00">||+ Cpf()</text>
<text text-anchor="start" x="155.5" y="-537" font-family="Helvetica,sans-Serif" font-size="10.00">+ get_numero()</text>
<text text-anchor="middle" x="189" y="-526" font-family="Helvetica,sans-Serif" font-size="10.00">}</text>
</a>
</g>
</g>
<!-- Node8&#45;&gt;Node4 -->
<g id="edge7" class="edge">
<title>Node8&#45;&gt;Node4</title>
<path fill="none" stroke="#404040" d="M171.42,-518.68C163.98,-507.97 155.08,-495.15 146.52,-482.83"/>
<polygon fill="none" stroke="#404040" points="146.5,-482.8 139.79,-480.16 139.66,-472.95 146.36,-475.59 146.5,-482.8"/>
<text text-anchor="middle" x="169" y="-493" font-family="Helvetica,sans-Serif" font-size="10.00"> #cpf</text>
</g>
<!-- Node9 -->
<g id="node9" class="node">
<title>Node9</title>
<g id="a_node9"><a xlink:title=" ">
<polygon fill="white" stroke="#666666" points="211,-339 173,-339 173,-309 211,-309 211,-339"/>
<text text-anchor="middle" x="192" y="-327" font-family="Helvetica,sans-Serif" font-size="10.00">{float</text>
<text text-anchor="middle" x="192" y="-316" font-family="Helvetica,sans-Serif" font-size="10.00">||}</text>
</a>
</g>
</g>
<!-- Node9&#45;&gt;Node2 -->
<g id="edge8" class="edge">
<title>Node9&#45;&gt;Node2</title>
<path fill="none" stroke="#404040" d="M188.47,-308.75C185.19,-295.52 180.03,-274.64 174.64,-252.87"/>
<polygon fill="none" stroke="#404040" points="174.64,-252.9 169.32,-248.03 171.76,-241.25 177.08,-246.11 174.64,-252.9"/>
<text text-anchor="middle" x="194" y="-261" font-family="Helvetica,sans-Serif" font-size="10.00"> #saldo</text>
</g>
</g>
</svg>
