<?xml version="1.0" encoding="UTF-8" standalone="no"?>
<!DOCTYPE svg PUBLIC "-//W3C//DTD SVG 1.1//EN"
 "http://www.w3.org/Graphics/SVG/1.1/DTD/svg11.dtd">
<!-- Generated by graphviz version 7.0.3 (20221126.0506)
 -->
<!-- Title: conta.hpp Pages: 1 -->
<svg width="228pt" height="247pt"
 viewBox="0.00 0.00 228.35 247.00" xmlns="http://www.w3.org/2000/svg" xmlns:xlink="http://www.w3.org/1999/xlink">
<g id="graph0" class="graph" transform="scale(1 1) rotate(0) translate(4 243)">
<title>conta.hpp</title>
<!-- Node1 -->
<g id="node1" class="node">
<title>Node1</title>
<g id="a_node1"><a xlink:title="Classe responsável por realizar as operações selecionadas.">
<polygon fill="#999999" stroke="#666666" points="153.96,-239 94.96,-239 94.96,-220 153.96,-220 153.96,-239"/>
<text text-anchor="middle" x="124.46" y="-227" font-family="Helvetica,sans-Serif" font-size="10.00">conta.hpp</text>
</a>
</g>
</g>
<!-- Node2 -->
<g id="node2" class="node">
<title>Node2</title>
<g id="a_node2"><a xlink:title=" ">
<polygon fill="#e0e0e0" stroke="#999999" points="197.46,-19 143.46,-19 143.46,0 197.46,0 197.46,-19"/>
<text text-anchor="middle" x="170.46" y="-7" font-family="Helvetica,sans-Serif" font-size="10.00">iostream</text>
</a>
</g>
</g>
<!-- Node1&#45;&gt;Node2 -->
<g id="edge1" class="edge">
<title>Node1&#45;&gt;Node2</title>
<path fill="none" stroke="#63b8ff" d="M154.06,-221.29C173.23,-214.92 196.72,-203.51 208.46,-184 238.88,-133.46 202.62,-61.57 182.35,-28.46"/>
<polygon fill="#63b8ff" stroke="#63b8ff" points="185.56,-26.99 177.24,-20.43 179.65,-30.75 185.56,-26.99"/>
</g>
<!-- Node3 -->
<g id="node3" class="node">
<title>Node3</title>
<g id="a_node3"><a xlink:title=" ">
<polygon fill="#e0e0e0" stroke="#999999" points="48.96,-19 7.96,-19 7.96,0 48.96,0 48.96,-19"/>
<text text-anchor="middle" x="28.46" y="-7" font-family="Helvetica,sans-Serif" font-size="10.00">string</text>
</a>
</g>
</g>
<!-- Node1&#45;&gt;Node3 -->
<g id="edge2" class="edge">
<title>Node1&#45;&gt;Node3</title>
<path fill="none" stroke="#63b8ff" d="M94.46,-225.21C68.93,-220.64 33.72,-209.78 16.46,-184 -15.39,-136.42 6.53,-64.12 20.04,-29.84"/>
<polygon fill="#63b8ff" stroke="#63b8ff" points="23.19,-31.38 23.79,-20.8 16.72,-28.7 23.19,-31.38"/>
</g>
<!-- Node4 -->
<g id="node4" class="node">
<title>Node4</title>
<g id="a_node4"><a xlink:title=" ">
<polygon fill="#e0e0e0" stroke="#999999" points="145.46,-184 103.46,-184 103.46,-165 145.46,-165 145.46,-184"/>
<text text-anchor="middle" x="124.46" y="-172" font-family="Helvetica,sans-Serif" font-size="10.00">vector</text>
</a>
</g>
</g>
<!-- Node1&#45;&gt;Node4 -->
<g id="edge3" class="edge">
<title>Node1&#45;&gt;Node4</title>
<path fill="none" stroke="#63b8ff" d="M124.46,-219.75C124.46,-213.27 124.46,-204.16 124.46,-195.9"/>
<polygon fill="#63b8ff" stroke="#63b8ff" points="127.96,-195.96 124.46,-185.96 120.96,-195.96 127.96,-195.96"/>
</g>
<!-- Node5 -->
<g id="node5" class="node">
<title>Node5</title>
<g id="a_node5"><a xlink:title=" ">
<polygon fill="#e0e0e0" stroke="#999999" points="198.96,-184 163.96,-184 163.96,-165 198.96,-165 198.96,-184"/>
<text text-anchor="middle" x="181.46" y="-172" font-family="Helvetica,sans-Serif" font-size="10.00">map</text>
</a>
</g>
</g>
<!-- Node1&#45;&gt;Node5 -->
<g id="edge4" class="edge">
<title>Node1&#45;&gt;Node5</title>
<path fill="none" stroke="#63b8ff" d="M134.13,-219.51C142.2,-212 153.93,-201.1 163.69,-192.03"/>
<polygon fill="#63b8ff" stroke="#63b8ff" points="165.89,-194.76 170.83,-185.39 161.12,-189.63 165.89,-194.76"/>
</g>
<!-- Node6 -->
<g id="node6" class="node">
<title>Node6</title>
<g id="a_node6"><a xlink:href="$titular_8hpp.html" xlink:title="Classe que cria as contas titulares.">
<polygon fill="white" stroke="#666666" points="84.96,-184 25.96,-184 25.96,-165 84.96,-165 84.96,-184"/>
<text text-anchor="middle" x="55.46" y="-172" font-family="Helvetica,sans-Serif" font-size="10.00">titular.hpp</text>
</a>
</g>
</g>
<!-- Node1&#45;&gt;Node6 -->
<g id="edge5" class="edge">
<title>Node1&#45;&gt;Node6</title>
<path fill="none" stroke="#63b8ff" d="M112.76,-219.51C102.68,-211.77 87.92,-200.43 75.9,-191.2"/>
<polygon fill="#63b8ff" stroke="#63b8ff" points="78.26,-188.6 68.19,-185.28 73.99,-194.15 78.26,-188.6"/>
</g>
<!-- Node6&#45;&gt;Node2 -->
<g id="edge6" class="edge">
<title>Node6&#45;&gt;Node2</title>
<path fill="none" stroke="#63b8ff" d="M77.09,-164.65C93.07,-157.17 114.41,-145.11 128.46,-129 153.38,-100.44 163.82,-56.1 167.96,-30.53"/>
<polygon fill="#63b8ff" stroke="#63b8ff" points="171.39,-31.23 169.34,-20.84 164.46,-30.24 171.39,-31.23"/>
</g>
<!-- Node6&#45;&gt;Node3 -->
<g id="edge7" class="edge">
<title>Node6&#45;&gt;Node3</title>
<path fill="none" stroke="#63b8ff" d="M52.43,-164.74C49.47,-155.85 45.03,-141.62 42.46,-129 35.49,-94.74 31.62,-54.16 29.8,-30.47"/>
<polygon fill="#63b8ff" stroke="#63b8ff" points="33.31,-30.44 29.1,-20.71 26.33,-30.94 33.31,-30.44"/>
</g>
<!-- Node7 -->
<g id="node7" class="node">
<title>Node7</title>
<g id="a_node7"><a xlink:href="$pessoa_8hpp.html" xlink:title="Classe que cria a pessoa dona da conta.">
<polygon fill="white" stroke="#666666" points="118.96,-129 51.96,-129 51.96,-110 118.96,-110 118.96,-129"/>
<text text-anchor="middle" x="85.46" y="-117" font-family="Helvetica,sans-Serif" font-size="10.00">pessoa.hpp</text>
</a>
</g>
</g>
<!-- Node6&#45;&gt;Node7 -->
<g id="edge8" class="edge">
<title>Node6&#45;&gt;Node7</title>
<path fill="none" stroke="#63b8ff" d="M60.42,-164.75C64.3,-157.88 69.85,-148.08 74.74,-139.45"/>
<polygon fill="#63b8ff" stroke="#63b8ff" points="77.77,-141.19 79.65,-130.76 71.68,-137.74 77.77,-141.19"/>
</g>
<!-- Node7&#45;&gt;Node2 -->
<g id="edge9" class="edge">
<title>Node7&#45;&gt;Node2</title>
<path fill="none" stroke="#63b8ff" d="M96.35,-109.69C106.44,-101.21 121.49,-87.67 132.46,-74 143.65,-60.05 153.91,-42.49 160.94,-29.38"/>
<polygon fill="#63b8ff" stroke="#63b8ff" points="164.03,-31.03 165.53,-20.54 157.81,-27.8 164.03,-31.03"/>
</g>
<!-- Node7&#45;&gt;Node3 -->
<g id="edge10" class="edge">
<title>Node7&#45;&gt;Node3</title>
<path fill="none" stroke="#63b8ff" d="M80.8,-109.66C71.61,-92.26 50.99,-53.19 38.56,-29.62"/>
<polygon fill="#63b8ff" stroke="#63b8ff" points="41.66,-28.01 33.9,-20.8 35.47,-31.28 41.66,-28.01"/>
</g>
<!-- Node8 -->
<g id="node8" class="node">
<title>Node8</title>
<g id="a_node8"><a xlink:href="$cpf_8hpp.html" xlink:title="Classe que verifica a validade do CPF.">
<polygon fill="white" stroke="#666666" points="123.46,-74 75.46,-74 75.46,-55 123.46,-55 123.46,-74"/>
<text text-anchor="middle" x="99.46" y="-62" font-family="Helvetica,sans-Serif" font-size="10.00">cpf.hpp</text>
</a>
</g>
</g>
<!-- Node7&#45;&gt;Node8 -->
<g id="edge11" class="edge">
<title>Node7&#45;&gt;Node8</title>
<path fill="none" stroke="#63b8ff" d="M87.77,-109.75C89.53,-103.11 92,-93.73 94.23,-85.31"/>
<polygon fill="#63b8ff" stroke="#63b8ff" points="97.54,-86.47 96.71,-75.91 90.78,-84.68 97.54,-86.47"/>
</g>
<!-- Node8&#45;&gt;Node2 -->
<g id="edge13" class="edge">
<title>Node8&#45;&gt;Node2</title>
<path fill="none" stroke="#63b8ff" d="M111.51,-54.51C121.87,-46.77 137.06,-35.43 149.43,-26.2"/>
<polygon fill="#63b8ff" stroke="#63b8ff" points="151.46,-29.05 157.38,-20.26 147.28,-23.44 151.46,-29.05"/>
</g>
<!-- Node8&#45;&gt;Node3 -->
<g id="edge12" class="edge">
<title>Node8&#45;&gt;Node3</title>
<path fill="none" stroke="#63b8ff" d="M87.42,-54.51C77.05,-46.77 61.86,-35.43 49.49,-26.2"/>
<polygon fill="#63b8ff" stroke="#63b8ff" points="51.65,-23.44 41.54,-20.26 47.46,-29.05 51.65,-23.44"/>
</g>
</g>
</svg>
