<?xml version="1.0" encoding="UTF-8" standalone="no"?>
<!DOCTYPE svg PUBLIC "-//W3C//DTD SVG 1.1//EN"
 "http://www.w3.org/Graphics/SVG/1.1/DTD/svg11.dtd">
<!-- Generated by graphviz version 7.0.3 (20221126.0506)
 -->
<!-- Title: main.cpp Pages: 1 -->
<svg width="550pt" height="357pt"
 viewBox="0.00 0.00 550.34 357.00" xmlns="http://www.w3.org/2000/svg" xmlns:xlink="http://www.w3.org/1999/xlink">
<g id="graph0" class="graph" transform="scale(1 1) rotate(0) translate(4 353)">
<title>main.cpp</title>
<!-- Node1 -->
<g id="node1" class="node">
<title>Node1</title>
<g id="a_node1"><a xlink:title=" ">
<polygon fill="#999999" stroke="#666666" points="341,-349 285,-349 285,-330 341,-330 341,-349"/>
<text text-anchor="middle" x="313" y="-337" font-family="Helvetica,sans-Serif" font-size="10.00">main.cpp</text>
</a>
</g>
</g>
<!-- Node2 -->
<g id="node2" class="node">
<title>Node2</title>
<g id="a_node2"><a xlink:title=" ">
<polygon fill="#e0e0e0" stroke="#999999" points="180,-19 126,-19 126,0 180,0 180,-19"/>
<text text-anchor="middle" x="153" y="-7" font-family="Helvetica,sans-Serif" font-size="10.00">iostream</text>
</a>
</g>
</g>
<!-- Node1&#45;&gt;Node2 -->
<g id="edge1" class="edge">
<title>Node1&#45;&gt;Node2</title>
<path fill="none" stroke="#63b8ff" d="M284.71,-338.36C237.53,-337.06 140.88,-329.81 69,-294 31.7,-275.42 0,-272.18 0,-230.5 0,-230.5 0,-230.5 0,-118.5 0,-62.45 69.38,-32.91 114.7,-19.6"/>
<polygon fill="#63b8ff" stroke="#63b8ff" points="115.49,-23.01 124.19,-16.96 113.62,-16.27 115.49,-23.01"/>
</g>
<!-- Node3 -->
<g id="node3" class="node">
<title>Node3</title>
<g id="a_node3"><a xlink:href="$banco_8hpp.html" xlink:title="Classe principal do projeto caixa eletrônico.">
<polygon fill="white" stroke="#666666" points="155,-294 93,-294 93,-275 155,-275 155,-294"/>
<text text-anchor="middle" x="124" y="-282" font-family="Helvetica,sans-Serif" font-size="10.00">banco.hpp</text>
</a>
</g>
</g>
<!-- Node1&#45;&gt;Node3 -->
<g id="edge2" class="edge">
<title>Node1&#45;&gt;Node3</title>
<path fill="none" stroke="#63b8ff" d="M284.7,-330.57C253.25,-321.75 202.14,-307.41 166.02,-297.28"/>
<polygon fill="#63b8ff" stroke="#63b8ff" points="167.36,-294.02 156.78,-294.69 165.47,-300.76 167.36,-294.02"/>
</g>
<!-- Node6 -->
<g id="node6" class="node">
<title>Node6</title>
<g id="a_node6"><a xlink:href="$conta_8hpp.html" xlink:title="Classe responsável por realizar as operações selecionadas.">
<polygon fill="white" stroke="#666666" points="374.5,-239 315.5,-239 315.5,-220 374.5,-220 374.5,-239"/>
<text text-anchor="middle" x="345" y="-227" font-family="Helvetica,sans-Serif" font-size="10.00">conta.hpp</text>
</a>
</g>
</g>
<!-- Node1&#45;&gt;Node6 -->
<g id="edge25" class="edge">
<title>Node1&#45;&gt;Node6</title>
<path fill="none" stroke="#63b8ff" d="M315.62,-329.66C320.73,-312.42 332.14,-273.9 339.14,-250.27"/>
<polygon fill="#63b8ff" stroke="#63b8ff" points="342.43,-251.49 341.92,-240.91 335.72,-249.51 342.43,-251.49"/>
</g>
<!-- Node8 -->
<g id="node8" class="node">
<title>Node8</title>
<g id="a_node8"><a xlink:href="$titular_8hpp.html" xlink:title="Classe que cria as contas titulares.">
<polygon fill="white" stroke="#666666" points="520.5,-184 461.5,-184 461.5,-165 520.5,-165 520.5,-184"/>
<text text-anchor="middle" x="491" y="-172" font-family="Helvetica,sans-Serif" font-size="10.00">titular.hpp</text>
</a>
</g>
</g>
<!-- Node1&#45;&gt;Node8 -->
<g id="edge30" class="edge">
<title>Node1&#45;&gt;Node8</title>
<path fill="none" stroke="#63b8ff" d="M341.2,-335.36C385.66,-329.78 468.88,-316.54 487,-294 509.5,-266.01 503.19,-221.14 496.89,-195.39"/>
<polygon fill="#63b8ff" stroke="#63b8ff" points="500.31,-194.64 494.32,-185.91 493.56,-196.47 500.31,-194.64"/>
</g>
<!-- Node9 -->
<g id="node9" class="node">
<title>Node9</title>
<g id="a_node9"><a xlink:href="$pessoa_8hpp.html" xlink:title="Classe que cria a pessoa dona da conta.">
<polygon fill="white" stroke="#666666" points="525.5,-129 458.5,-129 458.5,-110 525.5,-110 525.5,-129"/>
<text text-anchor="middle" x="492" y="-117" font-family="Helvetica,sans-Serif" font-size="10.00">pessoa.hpp</text>
</a>
</g>
</g>
<!-- Node1&#45;&gt;Node9 -->
<g id="edge29" class="edge">
<title>Node1&#45;&gt;Node9</title>
<path fill="none" stroke="#63b8ff" d="M341.26,-335.62C388.9,-330.18 482.24,-316.85 505,-294 546.21,-252.62 550.21,-219.79 530,-165 526.16,-154.59 518.68,-144.96 511.36,-137.34"/>
<polygon fill="#63b8ff" stroke="#63b8ff" points="513.81,-134.84 504.17,-130.44 508.96,-139.89 513.81,-134.84"/>
</g>
<!-- Node10 -->
<g id="node10" class="node">
<title>Node10</title>
<g id="a_node10"><a xlink:href="$cpf_8hpp.html" xlink:title="Classe que verifica a validade do CPF.">
<polygon fill="white" stroke="#666666" points="457,-74 409,-74 409,-55 457,-55 457,-74"/>
<text text-anchor="middle" x="433" y="-62" font-family="Helvetica,sans-Serif" font-size="10.00">cpf.hpp</text>
</a>
</g>
</g>
<!-- Node1&#45;&gt;Node10 -->
<g id="edge28" class="edge">
<title>Node1&#45;&gt;Node10</title>
<path fill="none" stroke="#63b8ff" d="M341.31,-338.72C374.49,-337.27 428.2,-329.2 454,-294 466.18,-277.38 444.95,-138.32 436.36,-85.63"/>
<polygon fill="#63b8ff" stroke="#63b8ff" points="439.85,-85.27 434.77,-75.97 432.94,-86.4 439.85,-85.27"/>
</g>
<!-- Node11 -->
<g id="node11" class="node">
<title>Node11</title>
<g id="a_node11"><a xlink:href="$transacao_8hpp.html" xlink:title="Classe responsável pelo extrato.">
<polygon fill="white" stroke="#666666" points="106,-239 28,-239 28,-220 106,-220 106,-239"/>
<text text-anchor="middle" x="67" y="-227" font-family="Helvetica,sans-Serif" font-size="10.00">transacao.hpp</text>
</a>
</g>
</g>
<!-- Node1&#45;&gt;Node11 -->
<g id="edge33" class="edge">
<title>Node1&#45;&gt;Node11</title>
<path fill="none" stroke="#63b8ff" d="M284.69,-336.68C230.03,-332.59 112.8,-320.86 84,-294 72.24,-283.03 68.28,-264.91 67.09,-250.82"/>
<polygon fill="#63b8ff" stroke="#63b8ff" points="70.59,-250.71 66.69,-240.86 63.59,-250.99 70.59,-250.71"/>
</g>
<!-- Node12 -->
<g id="node12" class="node">
<title>Node12</title>
<g id="a_node12"><a xlink:href="$conta_poupanca_8hpp.html" xlink:title="Classe que cria conta do tipo poupança.">
<polygon fill="white" stroke="#666666" points="444.5,-294 341.5,-294 341.5,-275 444.5,-275 444.5,-294"/>
<text text-anchor="middle" x="393" y="-282" font-family="Helvetica,sans-Serif" font-size="10.00">contaPoupanca.hpp</text>
</a>
</g>
</g>
<!-- Node1&#45;&gt;Node12 -->
<g id="edge26" class="edge">
<title>Node1&#45;&gt;Node12</title>
<path fill="none" stroke="#63b8ff" d="M326.57,-329.51C338.48,-321.62 356.05,-309.98 370.13,-300.65"/>
<polygon fill="#63b8ff" stroke="#63b8ff" points="371.96,-303.63 378.37,-295.19 368.1,-297.8 371.96,-303.63"/>
</g>
<!-- Node13 -->
<g id="node13" class="node">
<title>Node13</title>
<g id="a_node13"><a xlink:href="$conta_universitaria_8hpp.html" xlink:title="Classe que cria conta do tipo universitária.">
<polygon fill="white" stroke="#666666" points="285,-294 173,-294 173,-275 285,-275 285,-294"/>
<text text-anchor="middle" x="229" y="-282" font-family="Helvetica,sans-Serif" font-size="10.00">contaUniversitaria.hpp</text>
</a>
</g>
</g>
<!-- Node1&#45;&gt;Node13 -->
<g id="edge31" class="edge">
<title>Node1&#45;&gt;Node13</title>
<path fill="none" stroke="#63b8ff" d="M298.75,-329.51C286.12,-321.54 267.44,-309.75 252.59,-300.38"/>
<polygon fill="#63b8ff" stroke="#63b8ff" points="254.64,-297.54 244.32,-295.17 250.91,-303.46 254.64,-297.54"/>
</g>
<!-- Node3&#45;&gt;Node2 -->
<g id="edge3" class="edge">
<title>Node3&#45;&gt;Node2</title>
<path fill="none" stroke="#63b8ff" d="M124.93,-274.73C128.97,-236.7 145.02,-85.62 150.86,-30.64"/>
<polygon fill="#63b8ff" stroke="#63b8ff" points="154.32,-31.2 151.9,-20.88 147.36,-30.46 154.32,-31.2"/>
</g>
<!-- Node4 -->
<g id="node4" class="node">
<title>Node4</title>
<g id="a_node4"><a xlink:title=" ">
<polygon fill="#e0e0e0" stroke="#999999" points="223,-184 181,-184 181,-165 223,-165 223,-184"/>
<text text-anchor="middle" x="202" y="-172" font-family="Helvetica,sans-Serif" font-size="10.00">vector</text>
</a>
</g>
</g>
<!-- Node3&#45;&gt;Node4 -->
<g id="edge4" class="edge">
<title>Node3&#45;&gt;Node4</title>
<path fill="none" stroke="#63b8ff" d="M130.38,-274.66C143.12,-257.02 171.94,-217.12 188.88,-193.67"/>
<polygon fill="#63b8ff" stroke="#63b8ff" points="191.63,-195.84 194.64,-185.69 185.95,-191.74 191.63,-195.84"/>
</g>
<!-- Node5 -->
<g id="node5" class="node">
<title>Node5</title>
<g id="a_node5"><a xlink:title=" ">
<polygon fill="#e0e0e0" stroke="#999999" points="427.5,-19 386.5,-19 386.5,0 427.5,0 427.5,-19"/>
<text text-anchor="middle" x="407" y="-7" font-family="Helvetica,sans-Serif" font-size="10.00">string</text>
</a>
</g>
</g>
<!-- Node3&#45;&gt;Node5 -->
<g id="edge5" class="edge">
<title>Node3&#45;&gt;Node5</title>
<path fill="none" stroke="#63b8ff" d="M135.19,-274.56C146.08,-265.75 162.99,-251.8 177,-239 260.1,-163.08 353.71,-66.35 390.71,-27.64"/>
<polygon fill="#63b8ff" stroke="#63b8ff" points="393.07,-30.23 397.44,-20.58 388,-25.4 393.07,-30.23"/>
</g>
<!-- Node3&#45;&gt;Node6 -->
<g id="edge6" class="edge">
<title>Node3&#45;&gt;Node6</title>
<path fill="none" stroke="#63b8ff" d="M155.2,-276.02C194.19,-266.67 261.02,-250.64 304.09,-240.31"/>
<polygon fill="#63b8ff" stroke="#63b8ff" points="304.65,-243.78 313.55,-238.04 303.01,-236.97 304.65,-243.78"/>
</g>
<!-- Node7 -->
<g id="node7" class="node">
<title>Node7</title>
<g id="a_node7"><a xlink:title=" ">
<polygon fill="#e0e0e0" stroke="#999999" points="314.5,-184 279.5,-184 279.5,-165 314.5,-165 314.5,-184"/>
<text text-anchor="middle" x="297" y="-172" font-family="Helvetica,sans-Serif" font-size="10.00">map</text>
</a>
</g>
</g>
<!-- Node3&#45;&gt;Node7 -->
<g id="edge20" class="edge">
<title>Node3&#45;&gt;Node7</title>
<path fill="none" stroke="#63b8ff" d="M155.23,-276.4C190.91,-267.8 246.5,-252.74 263,-239 276.81,-227.49 285.83,-208.89 291.09,-194.78"/>
<polygon fill="#63b8ff" stroke="#63b8ff" points="294.28,-196.28 294.16,-185.68 287.65,-194.04 294.28,-196.28"/>
</g>
<!-- Node3&#45;&gt;Node11 -->
<g id="edge21" class="edge">
<title>Node3&#45;&gt;Node11</title>
<path fill="none" stroke="#63b8ff" d="M114.33,-274.51C106.26,-267 94.53,-256.1 84.78,-247.03"/>
<polygon fill="#63b8ff" stroke="#63b8ff" points="87.34,-244.63 77.63,-240.39 82.57,-249.76 87.34,-244.63"/>
</g>
<!-- Node6&#45;&gt;Node2 -->
<g id="edge7" class="edge">
<title>Node6&#45;&gt;Node2</title>
<path fill="none" stroke="#63b8ff" d="M343.39,-219.67C340.74,-206.8 334.57,-182.53 323,-165 282.44,-103.54 211.95,-50.36 175.81,-25.49"/>
<polygon fill="#63b8ff" stroke="#63b8ff" points="178.07,-22.8 167.83,-20.1 174.15,-28.6 178.07,-22.8"/>
</g>
<!-- Node6&#45;&gt;Node4 -->
<g id="edge9" class="edge">
<title>Node6&#45;&gt;Node4</title>
<path fill="none" stroke="#63b8ff" d="M320.74,-219.51C296.76,-210.62 259.93,-196.97 233.66,-187.23"/>
<polygon fill="#63b8ff" stroke="#63b8ff" points="235.12,-184.04 224.53,-183.85 232.69,-190.61 235.12,-184.04"/>
</g>
<!-- Node6&#45;&gt;Node5 -->
<g id="edge8" class="edge">
<title>Node6&#45;&gt;Node5</title>
<path fill="none" stroke="#63b8ff" d="M347.51,-219.68C356.66,-187.5 388.41,-75.86 401.4,-30.2"/>
<polygon fill="#63b8ff" stroke="#63b8ff" points="404.75,-31.22 404.12,-20.64 398.01,-29.3 404.75,-31.22"/>
</g>
<!-- Node6&#45;&gt;Node7 -->
<g id="edge10" class="edge">
<title>Node6&#45;&gt;Node7</title>
<path fill="none" stroke="#63b8ff" d="M337.07,-219.75C330.44,-212.43 320.78,-201.76 312.61,-192.74"/>
<polygon fill="#63b8ff" stroke="#63b8ff" points="315.42,-190.63 306.11,-185.56 310.23,-195.33 315.42,-190.63"/>
</g>
<!-- Node6&#45;&gt;Node8 -->
<g id="edge11" class="edge">
<title>Node6&#45;&gt;Node8</title>
<path fill="none" stroke="#63b8ff" d="M369.77,-219.51C393.4,-210.93 429.24,-197.92 455.83,-188.27"/>
<polygon fill="#63b8ff" stroke="#63b8ff" points="456.97,-191.58 465.18,-184.87 454.58,-185 456.97,-191.58"/>
</g>
<!-- Node8&#45;&gt;Node2 -->
<g id="edge12" class="edge">
<title>Node8&#45;&gt;Node2</title>
<path fill="none" stroke="#63b8ff" d="M472.35,-164.5C416.37,-137.51 249.53,-57.05 181.93,-24.45"/>
<polygon fill="#63b8ff" stroke="#63b8ff" points="183.49,-21.32 172.96,-20.13 180.45,-27.62 183.49,-21.32"/>
</g>
<!-- Node8&#45;&gt;Node5 -->
<g id="edge13" class="edge">
<title>Node8&#45;&gt;Node5</title>
<path fill="none" stroke="#63b8ff" d="M504.51,-164.63C520.33,-153.03 543.37,-131.64 535,-110 518.31,-66.84 470.26,-38.07 438.02,-23.02"/>
<polygon fill="#63b8ff" stroke="#63b8ff" points="439.7,-19.94 429.14,-19.06 436.84,-26.33 439.7,-19.94"/>
</g>
<!-- Node8&#45;&gt;Node9 -->
<g id="edge14" class="edge">
<title>Node8&#45;&gt;Node9</title>
<path fill="none" stroke="#63b8ff" d="M491.17,-164.75C491.29,-158.27 491.46,-149.16 491.62,-140.9"/>
<polygon fill="#63b8ff" stroke="#63b8ff" points="495.11,-141.02 491.8,-130.96 488.11,-140.89 495.11,-141.02"/>
</g>
<!-- Node9&#45;&gt;Node2 -->
<g id="edge15" class="edge">
<title>Node9&#45;&gt;Node2</title>
<path fill="none" stroke="#63b8ff" d="M463.97,-109.57C403.26,-90.23 259.57,-44.45 190.87,-22.56"/>
<polygon fill="#63b8ff" stroke="#63b8ff" points="192.15,-19.3 181.56,-19.6 190.03,-25.97 192.15,-19.3"/>
</g>
<!-- Node9&#45;&gt;Node5 -->
<g id="edge16" class="edge">
<title>Node9&#45;&gt;Node5</title>
<path fill="none" stroke="#63b8ff" d="M489.95,-109.52C486.63,-96.48 479.09,-71.98 466,-55 456.97,-43.29 444.12,-33.1 432.71,-25.44"/>
<polygon fill="#63b8ff" stroke="#63b8ff" points="434.78,-22.61 424.47,-20.2 431.03,-28.52 434.78,-22.61"/>
</g>
<!-- Node9&#45;&gt;Node10 -->
<g id="edge17" class="edge">
<title>Node9&#45;&gt;Node10</title>
<path fill="none" stroke="#63b8ff" d="M481.99,-109.51C473.63,-102 461.5,-91.1 451.4,-82.03"/>
<polygon fill="#63b8ff" stroke="#63b8ff" points="453.76,-79.45 443.99,-75.37 449.09,-84.66 453.76,-79.45"/>
</g>
<!-- Node10&#45;&gt;Node2 -->
<g id="edge19" class="edge">
<title>Node10&#45;&gt;Node2</title>
<path fill="none" stroke="#63b8ff" d="M408.64,-58.89C359.87,-49.66 249.9,-28.84 191.36,-17.76"/>
<polygon fill="#63b8ff" stroke="#63b8ff" points="192.33,-14.38 181.86,-15.96 191.03,-21.26 192.33,-14.38"/>
</g>
<!-- Node10&#45;&gt;Node5 -->
<g id="edge18" class="edge">
<title>Node10&#45;&gt;Node5</title>
<path fill="none" stroke="#63b8ff" d="M428.71,-54.75C425.38,-47.96 420.64,-38.3 416.44,-29.73"/>
<polygon fill="#63b8ff" stroke="#63b8ff" points="419.6,-28.24 412.05,-20.8 413.32,-31.32 419.6,-28.24"/>
</g>
<!-- Node11&#45;&gt;Node2 -->
<g id="edge22" class="edge">
<title>Node11&#45;&gt;Node2</title>
<path fill="none" stroke="#63b8ff" d="M66.76,-219.87C66.41,-193.3 68.2,-111.2 101,-55 107.72,-43.49 118.53,-33.52 128.56,-25.96"/>
<polygon fill="#63b8ff" stroke="#63b8ff" points="130.38,-28.96 136.54,-20.34 126.35,-23.23 130.38,-28.96"/>
</g>
<!-- Node11&#45;&gt;Node4 -->
<g id="edge23" class="edge">
<title>Node11&#45;&gt;Node4</title>
<path fill="none" stroke="#63b8ff" d="M89.9,-219.51C111.95,-210.85 145.49,-197.68 170.14,-188.01"/>
<polygon fill="#63b8ff" stroke="#63b8ff" points="171.33,-191.3 179.36,-184.39 168.77,-184.78 171.33,-191.3"/>
</g>
<!-- Node11&#45;&gt;Node5 -->
<g id="edge24" class="edge">
<title>Node11&#45;&gt;Node5</title>
<path fill="none" stroke="#63b8ff" d="M73.74,-219.79C96.05,-191.54 170.8,-101.62 253,-55 291.91,-32.93 342.68,-21.03 375.07,-15.23"/>
<polygon fill="#63b8ff" stroke="#63b8ff" points="375.35,-18.73 384.63,-13.61 374.18,-11.83 375.35,-18.73"/>
</g>
<!-- Node12&#45;&gt;Node6 -->
<g id="edge27" class="edge">
<title>Node12&#45;&gt;Node6</title>
<path fill="none" stroke="#63b8ff" d="M385.07,-274.75C378.44,-267.43 368.78,-256.76 360.61,-247.74"/>
<polygon fill="#63b8ff" stroke="#63b8ff" points="363.42,-245.63 354.11,-240.56 358.23,-250.33 363.42,-245.63"/>
</g>
<!-- Node13&#45;&gt;Node6 -->
<g id="edge32" class="edge">
<title>Node13&#45;&gt;Node6</title>
<path fill="none" stroke="#63b8ff" d="M248.68,-274.51C266.95,-266.16 294.41,-253.61 315.35,-244.05"/>
<polygon fill="#63b8ff" stroke="#63b8ff" points="316.6,-247.33 324.24,-239.99 313.69,-240.96 316.6,-247.33"/>
</g>
</g>
</svg>
